<?xml version="1.0" encoding="utf-8"?>
<!-- Generator: Adobe Illustrator 16.0.0, SVG Export Plug-In . SVG Version: 6.00 Build 0)  -->
<!DOCTYPE svg PUBLIC "-//W3C//DTD SVG 1.1//EN" "http://www.w3.org/Graphics/SVG/1.1/DTD/svg11.dtd">
<svg version="1.1" id="Layer_1" xmlns="http://www.w3.org/2000/svg" xmlns:xlink="http://www.w3.org/1999/xlink" x="0px" y="0px"
	 width="200px" height="200px" viewBox="0 0 200 200" enable-background="new 0 0 200 200" xml:space="preserve">
<g>
	<g>
		<path fill-rule="evenodd" clip-rule="evenodd" fill="none" d="M-24.353,237.53c0-92.607,0-185.181,0-277.835
			c83.186,0,166.372,0,249.631,0c0,92.531,0,185.143,0,277.835C142.166,237.53,58.979,237.53-24.353,237.53z M108.632,144.287
			c0,6.092-0.229,10.556,0.048,14.98c0.565,9.028,6.306,12.594,14.123,9.623c6.134-2.33,9.678-7.838,12.815-13.713
			c6.313-11.825,9.118-24.743,9.18-38.385c0.056-12.434,4.012-23.494,9.367-34.009c4.121-8.09,6.582-16.434,5.681-25.824
			c-0.599-6.233-1.861-12.249-5.114-17.44c-7.62-12.163-19.493-13.7-30.184-11.509c-5.604,1.148-11.021,3.388-16.597,4.753
			c-2.705,0.663-5.425,1.968-8.319,1.202c-3.309-0.876-6.639-1.679-9.906-2.72c-7.677-2.444-15.354-4.844-23.471-3.729
			c-9.367,1.289-16.535,6.555-20.319,16.113c-4.969,12.55-4.371,25.144,1.56,37.373c2.903,5.986,6.008,11.898,8.031,18.356
			c2.135,6.812,2.323,13.998,2.563,21.085c0.45,13.238,3.832,25.416,10.006,36.63c3.181,5.777,7.249,10.562,13.49,12.372
			c6.42,1.862,11.221-1.365,12.262-8.517c0.533-3.662,0.492-7.361,0.319-11.075c-0.379-8.139-0.532-16.291,0.969-24.329
			c0.621-3.327,3.362-5.401,6.476-5.291c3.238,0.115,5.337,2.275,6.059,5.775C109.03,132.602,108.52,139.281,108.632,144.287z"/>
		<path fill-rule="evenodd" clip-rule="evenodd" fill="#60C1C6" d="M108.632,144.287c-0.112-5.006,0.398-11.686-0.962-18.277
			c-0.722-3.5-2.82-5.66-6.059-5.775c-3.114-0.11-5.855,1.964-6.476,5.291c-1.5,8.038-1.348,16.19-0.969,24.329
			c0.173,3.714,0.213,7.413-0.319,11.075c-1.041,7.151-5.842,10.379-12.262,8.517c-6.242-1.811-10.31-6.595-13.49-12.372
			c-6.174-11.214-9.556-23.392-10.006-36.63c-0.24-7.087-0.428-14.273-2.563-21.085c-2.023-6.458-5.128-12.37-8.031-18.356
			c-5.931-12.229-6.529-24.823-1.56-37.373c3.785-9.559,10.952-14.825,20.319-16.113c8.117-1.116,15.794,1.284,23.471,3.729
			c3.268,1.041,6.597,1.844,9.906,2.72c2.894,0.766,5.614-0.539,8.319-1.202c5.576-1.366,10.993-3.605,16.597-4.753
			c10.69-2.191,22.563-0.654,30.184,11.509c3.253,5.192,4.516,11.208,5.114,17.44c0.901,9.39-1.56,17.734-5.681,25.824
			c-5.355,10.515-9.312,21.575-9.367,34.009c-0.062,13.642-2.866,26.56-9.18,38.385c-3.138,5.875-6.682,11.383-12.815,13.713
			c-7.817,2.971-13.558-0.595-14.123-9.623C108.402,154.843,108.632,150.379,108.632,144.287z M104.655,38.93
			c3.184,1.789,5.787,2.931,8.518,3.746c1.348,0.402,2.242,1.338,1.964,3.013c-0.265,1.593-1.354,1.968-2.654,1.812
			c-0.576-0.07-1.167-0.106-1.719-0.283c-3.359-1.075-6.637-2.505-9.62-4.459c-4.758-3.117-9.64-5.777-15.002-7.295
			c-5.792-1.64-11.54-3.636-17.632-3.053c-8.709,0.833-15.324,5.215-18.704,14.467c-3.484,9.539-3.39,19.122,0.534,28.536
			c1.119,2.685,2.242,5.389,3.606,7.922c6.012,11.167,8.514,23.288,8.702,36.23c0.16,11.075,2.707,21.603,7.648,31.259
			c2.596,5.072,5.093,10.364,10.426,12.79c5.915,2.69,8.638,0.755,8.797-6.421c0.026-1.203,0.022-2.408,0.021-3.612
			c-0.005-6.482-0.051-12.965-0.009-19.447c0.025-3.804,0.42-7.619,1.459-11.214c1.632-5.644,6.263-8.314,12.422-7.624
			c4.641,0.521,8.322,5.081,9.076,10.967c0.801,6.247,1.059,12.505,0.928,18.807c-0.099,4.72-0.119,9.448,0.013,14.166
			c0.124,4.393,2.825,6.428,6.654,5.261c1.295-0.395,2.47-1.063,3.606-1.849c4.904-3.387,7.239-8.959,9.864-14.292
			c5.051-10.265,6.532-21.511,6.773-32.932c0.252-11.914,3.581-22.6,8.805-32.798c4.425-8.64,7.452-17.573,5.882-27.976
			c-2.369-15.7-13.663-24.777-27.739-21.938C119.84,34.208,112.725,37.011,104.655,38.93z"/>
		<path fill-rule="evenodd" clip-rule="evenodd" fill="none" d="M104.655,38.93c8.069-1.919,15.185-4.721,22.619-6.22
			c14.076-2.839,25.37,6.238,27.739,21.938c1.57,10.403-1.457,19.336-5.882,27.976c-5.224,10.198-8.553,20.884-8.805,32.798
			c-0.241,11.421-1.723,22.667-6.773,32.932c-2.625,5.333-4.96,10.905-9.864,14.292c-1.137,0.785-2.312,1.454-3.606,1.849
			c-3.829,1.167-6.53-0.868-6.654-5.261c-0.132-4.718-0.111-9.446-0.013-14.166c0.131-6.302-0.127-12.56-0.928-18.807
			c-0.754-5.886-4.436-10.446-9.076-10.967c-6.16-0.69-10.791,1.98-12.422,7.624c-1.039,3.595-1.434,7.41-1.459,11.214
			c-0.042,6.482,0.003,12.965,0.009,19.447c0.001,1.204,0.005,2.409-0.021,3.612c-0.159,7.176-2.882,9.111-8.797,6.421
			c-5.333-2.426-7.83-7.718-10.426-12.79c-4.942-9.656-7.488-20.184-7.648-31.259c-0.188-12.942-2.69-25.063-8.702-36.23
			c-1.364-2.533-2.487-5.237-3.606-7.922c-3.924-9.414-4.018-18.997-0.534-28.536c3.38-9.252,9.994-13.633,18.704-14.467
			c6.092-0.583,11.84,1.413,17.632,3.053c5.363,1.519,10.245,4.179,15.002,7.295c2.983,1.954,6.261,3.384,9.62,4.459
			c0.552,0.177,1.143,0.213,1.719,0.283c1.3,0.156,2.39-0.219,2.654-1.812c0.278-1.675-0.616-2.61-1.964-3.013
			C110.442,41.86,107.839,40.718,104.655,38.93z M85.086,82.64c-2.247-0.153-2.567,1.408-2.528,3.409
			c0.182,9.479,6.797,17.664,15.871,19.586c10.697,2.268,21.6-7.674,21.628-19.703c0.004-1.71-0.146-3.217-2.137-3.275
			c-1.653-0.072-3.308-0.213-4.961-0.206C103.669,82.495,94.377,82.574,85.086,82.64z M54.48,61.881
			c-0.167,1.874,0.314,4.752,1.289,7.554c0.577,1.661,1.647,2.391,3.129,1.81c1.401-0.549,1.725-1.857,1.278-3.4
			c-0.229-0.79-0.527-1.563-0.675-2.372c-1.016-5.527-0.642-10.914,2.061-15.766c2.102-3.773,5.636-4.499,9.354-4.542
			c1.369-0.016,2.151-0.979,2.106-2.516c-0.045-1.544-0.924-2.381-2.259-2.397c-4.266-0.054-8.276,0.869-11.408,4.407
			C55.401,49.127,54.568,54.799,54.48,61.881z M121.05,67.558c2.26,0.038,3.775-1.523,3.871-3.989
			c0.088-2.258-1.677-4.264-3.749-4.262c-2.217,0.003-3.729,1.671-3.753,4.14C117.394,66.172,118.581,67.517,121.05,67.558z
			 M81.586,67.56c2.366,0.021,3.833-1.461,3.884-3.923c0.049-2.37-1.561-4.253-3.667-4.294c-2.186-0.042-3.833,1.697-3.842,4.058
			C77.951,66.001,79.292,67.539,81.586,67.56z"/>
		<path fill-rule="evenodd" clip-rule="evenodd" fill="#60C1C6" d="M117.921,82.658c1.991,0.058,2.141,1.564,2.137,3.275
			c-0.028,12.029-10.932,21.971-21.628,19.703c-9.074-1.923-15.689-10.107-15.871-19.586c-0.039-2.001,0.281-3.562,2.527-3.41
			c0.474,0.503,1.073,0.4,1.644,0.401c9.846,0.003,19.691,0.002,29.537-0.003C116.838,83.037,117.436,83.139,117.921,82.658z
			 M87.7,87.616c-0.31,5.078,5.32,12.587,12.213,13.181c7.702,0.663,14.434-5.155,15.304-13.181
			C106.031,87.616,96.86,87.616,87.7,87.616z"/>
		<path fill-rule="evenodd" clip-rule="evenodd" fill="#60C1C6" d="M54.48,61.881c0.087-7.083,0.92-12.754,4.875-17.223
			c3.132-3.539,7.142-4.461,11.408-4.407c1.335,0.017,2.214,0.853,2.259,2.397c0.044,1.537-0.737,2.5-2.106,2.516
			c-3.718,0.043-7.252,0.769-9.354,4.542c-2.703,4.852-3.076,10.239-2.061,15.766c0.148,0.809,0.447,1.583,0.675,2.372
			c0.447,1.542,0.123,2.851-1.278,3.4c-1.482,0.582-2.552-0.149-3.129-1.81C54.795,66.633,54.314,63.755,54.48,61.881z"/>
		<path fill-rule="evenodd" clip-rule="evenodd" fill="#60C1C6" d="M121.05,67.558c-2.469-0.041-3.656-1.385-3.631-4.11
			c0.023-2.469,1.536-4.137,3.753-4.14c2.072-0.002,3.837,2.003,3.749,4.262C124.825,66.034,123.31,67.595,121.05,67.558z"/>
		<path fill-rule="evenodd" clip-rule="evenodd" fill="#60C1C6" d="M81.586,67.56c-2.295-0.021-3.635-1.558-3.625-4.16
			c0.009-2.36,1.656-4.099,3.842-4.058c2.106,0.041,3.715,1.924,3.667,4.294C85.42,66.099,83.952,67.58,81.586,67.56z"/>
		<path fill-rule="evenodd" clip-rule="evenodd" fill="#7EB1B5" d="M117.921,82.658c-0.485,0.481-1.083,0.379-1.654,0.38
			c-9.846,0.005-19.691,0.006-29.537,0.003c-0.571,0-1.17,0.103-1.644-0.401c9.292-0.066,18.583-0.145,27.875-0.188
			C114.613,82.444,116.268,82.585,117.921,82.658z"/>
		<path fill-rule="evenodd" clip-rule="evenodd" fill="none" d="M87.7,87.616c9.161,0,18.332,0,27.517,0
			c-0.87,8.025-7.603,13.844-15.304,13.181C93.02,100.203,87.39,92.694,87.7,87.616z"/>
	</g>
</g>
</svg>
