<?xml version="1.0" encoding="utf-8"?>
<!-- Generator: Adobe Illustrator 16.0.0, SVG Export Plug-In . SVG Version: 6.00 Build 0)  -->
<!DOCTYPE svg PUBLIC "-//W3C//DTD SVG 1.1//EN" "http://www.w3.org/Graphics/SVG/1.1/DTD/svg11.dtd">
<svg version="1.1" id="Layer_1" xmlns="http://www.w3.org/2000/svg" xmlns:xlink="http://www.w3.org/1999/xlink" x="0px" y="0px"
	 width="200px" height="200px" viewBox="0 0 200 200" enable-background="new 0 0 200 200" xml:space="preserve">
<g>
	<g>
		<path fill-rule="evenodd" clip-rule="evenodd" fill="none" d="M201,101.5c0,32.167-0.033,64.333,0.064,96.5
			c0.008,2.5-0.565,3.066-3.064,3.063c-64.667-0.08-129.333-0.08-194,0c-2.5,0.003-3.066-0.564-3.063-3.063
			c0.08-64.667,0.08-129.333,0-194C0.934,1.5,1.5,0.934,4,0.937c64.667,0.08,129.333,0.08,194,0
			c2.499-0.003,3.072,0.563,3.064,3.063C200.967,36.5,201,69,201,101.5z M50.32,59.874c-0.465,1.409-0.517,3.255-1.465,4.153
			c-4.42,4.187-1.857,8.456-0.505,12.737c0.549,1.741,1.092,3.505,1.87,5.149c2.91,6.156,3.716,12.604,3.661,19.383
			c-0.141,17.337,0.587,34.653,4.153,51.687c1.768,8.442,3.771,16.91,9.146,24.013c1.328,1.755,3.024,3.34,5.452,2.848
			c2.319-0.47,2.821-2.693,3.336-4.579c1.808-6.612,2.22-13.449,3.003-20.22c1.229-10.626,3.379-21.022,7.885-30.783
			c2.147-4.652,4.151-10.548,10.013-10.685c5.984-0.14,7.999,5.826,10.159,10.436c4.56,9.732,6.736,20.129,7.97,30.759
			c0.805,6.936,1.13,13.964,3.097,20.708c1.565,5.364,4.872,6,8.549,1.722c1.286-1.496,2.35-3.244,3.226-5.02
			c2.359-4.787,3.91-9.879,5.154-15.053c4.437-18.436,5.175-37.232,5.087-56.063c-0.031-6.803,1.022-13.167,3.727-19.394
			c2.05-4.721,3.449-9.695,4.638-14.723c0.827-3.498-2.159-2.484-3.619-3.316c-1.979-1.127-2.537-0.233-2.905,1.676
			c-1.073,5.566-2.938,10.918-5.125,16.122c-2.234,5.316-3.13,10.729-3.131,16.497c-0.001,9.158-0.269,18.333-0.89,27.469
			c-0.891,13.117-2.264,26.197-6.81,38.687c-0.578,1.59-0.679,3.544-2.712,4.611c-0.453-4.076-0.867-7.856-1.296-11.636
			c-1.524-13.441-3.876-26.693-10.351-38.777c-3.112-5.808-6.89-11.345-14.477-11.432c-7.86-0.091-11.684,5.63-14.882,11.583
			c-5.254,9.782-7.8,20.447-9.302,31.373c-0.855,6.219-1.567,12.458-2.343,18.688c-3.653-6.227-5.418-12.76-6.624-19.45
			c-3.204-17.781-3.48-35.776-3.748-53.763c-0.053-3.541-0.436-6.959-1.732-10.256C55.304,76.83,52.271,68.578,50.32,59.874z
			 M70.716,19.899c-7.165,0.388-13.375,3.142-18.753,8c-2.749,2.483-1.433,5.085,0.201,6.964c2.112,2.429,2.943-0.728,4.023-1.749
			c5.755-5.438,12.37-7.723,20.11-5.467c13.769,4.012,27.417,3.795,41.269,0.107c12.314-3.279,22.507,3.369,25.445,15.777
			c0.277,1.172-0.502,3.43,2.179,2.747c1.897-0.483,4.194-0.637,4.205-3.355c0.005-1.3-0.313-2.641-0.697-3.897
			c-4.056-13.26-17.681-21.283-31.259-18.077c-10.928,2.58-21.808,4.508-32.985,1.789C79.945,21.642,75.484,20.314,70.716,19.899z
			 M57.765,45.06c-4.158-2.163-8.768-1.713-11.504-4.651c-2.604-2.795-2.119-7.323-4.738-10.933
			C40.9,38.97,35.694,43.828,26.235,45.126c9.712,1.002,14.594,6.177,15.476,15.463C46.397,48.985,46.397,48.985,57.765,45.06z
			 M173.982,55.427c-3.708-2.67-8.349-2.055-11.058-5.052c-2.617-2.895-2.064-7.479-5.057-11.802
			c-0.093,10.396-5.501,15.095-14.915,16.612c10.022,0.755,14.274,6.5,15.766,15.626C159.924,61.496,164.432,56.052,173.982,55.427z
			 M108.62,90.902c1.271-9.335,5.928-14.842,15.574-15.637c-2.281-1.258-4.215-2.042-6.225-2.43
			c-4.077-0.787-6.28-3.057-7.095-7.183c-0.404-2.048-0.771-4.366-2.407-6.158c-1.826,3.826-1.481,8.417-4.397,11.232
			c-2.737,2.642-7.314,2.14-10.918,4.876C103.064,75.896,107.371,81.52,108.62,90.902z"/>
		<path fill-rule="evenodd" clip-rule="evenodd" fill="#282F37" d="M50.32,59.874c1.951,8.704,4.984,16.956,8.207,25.15
			c1.297,3.296,1.68,6.715,1.732,10.256c0.268,17.986,0.544,35.981,3.748,53.763c1.206,6.69,2.971,13.224,6.624,19.45
			c0.776-6.229,1.488-12.469,2.343-18.688c1.502-10.926,4.048-21.591,9.302-31.373c3.198-5.953,7.021-11.674,14.882-11.583
			c7.587,0.087,11.364,5.624,14.477,11.432c6.475,12.084,8.826,25.336,10.351,38.777c0.429,3.779,0.843,7.56,1.296,11.636
			c2.033-1.067,2.134-3.021,2.712-4.611c4.546-12.489,5.919-25.569,6.81-38.687c0.621-9.137,0.889-18.312,0.89-27.469
			c0.001-5.768,0.896-11.181,3.131-16.497c2.187-5.203,4.052-10.556,5.125-16.122c0.368-1.909,0.926-2.803,2.905-1.676
			c1.46,0.832,4.446-0.181,3.619,3.316c-1.188,5.027-2.588,10.001-4.638,14.723c-2.704,6.227-3.758,12.591-3.727,19.394
			c0.088,18.831-0.65,37.628-5.087,56.063c-1.244,5.174-2.795,10.266-5.154,15.053c-0.876,1.775-1.939,3.523-3.226,5.02
			c-3.677,4.278-6.983,3.643-8.549-1.722c-1.967-6.744-2.292-13.772-3.097-20.708c-1.233-10.63-3.41-21.026-7.97-30.759
			c-2.16-4.609-4.175-10.575-10.159-10.436c-5.862,0.137-7.866,6.032-10.013,10.685c-4.505,9.761-6.655,20.157-7.885,30.783
			c-0.783,6.771-1.195,13.607-3.003,20.22c-0.516,1.886-1.018,4.109-3.336,4.579c-2.427,0.492-4.124-1.093-5.452-2.848
			c-5.375-7.103-7.378-15.57-9.146-24.013c-3.566-17.033-4.294-34.35-4.153-51.687c0.055-6.779-0.751-13.227-3.661-19.383
			c-0.777-1.644-1.32-3.408-1.87-5.149c-1.352-4.281-3.915-8.55,0.505-12.737C49.804,63.129,49.855,61.283,50.32,59.874z"/>
		<path fill-rule="evenodd" clip-rule="evenodd" fill="#282F37" d="M70.716,19.899c4.768,0.416,9.229,1.743,13.737,2.839
			c11.178,2.719,22.058,0.791,32.985-1.789c13.578-3.206,27.203,4.817,31.259,18.077c0.385,1.257,0.702,2.597,0.697,3.897
			c-0.011,2.719-2.308,2.872-4.205,3.355c-2.681,0.683-1.901-1.574-2.179-2.747c-2.938-12.409-13.131-19.056-25.445-15.777
			c-13.852,3.688-27.5,3.904-41.269-0.107c-7.74-2.255-14.355,0.029-20.11,5.467c-1.08,1.021-1.911,4.178-4.023,1.749
			c-1.634-1.879-2.95-4.481-0.201-6.964C57.341,23.041,63.552,20.287,70.716,19.899z"/>
		<path fill-rule="evenodd" clip-rule="evenodd" fill="#282F37" d="M57.765,45.06c-11.367,3.925-11.367,3.925-16.054,15.53
			c-0.881-9.287-5.764-14.461-15.476-15.463c9.458-1.299,14.665-6.157,15.287-15.651c2.619,3.61,2.134,8.138,4.738,10.933
			C48.997,43.346,53.607,42.896,57.765,45.06z"/>
		<path fill-rule="evenodd" clip-rule="evenodd" fill="#282F37" d="M173.982,55.427c-9.551,0.625-14.059,6.068-15.264,15.384
			c-1.491-9.126-5.743-14.871-15.766-15.626c9.414-1.517,14.822-6.216,14.915-16.612c2.992,4.322,2.439,8.907,5.057,11.802
			C165.634,53.372,170.274,52.757,173.982,55.427z"/>
		<path fill-rule="evenodd" clip-rule="evenodd" fill="#282F37" d="M108.62,90.902c-1.249-9.382-5.556-15.006-15.468-15.299
			c3.604-2.736,8.181-2.234,10.918-4.876c2.916-2.815,2.571-7.407,4.397-11.232c1.636,1.792,2.003,4.109,2.407,6.158
			c0.814,4.126,3.018,6.396,7.095,7.183c2.01,0.388,3.943,1.171,6.225,2.43C114.548,76.061,109.891,81.567,108.62,90.902z"/>
	</g>
</g>
</svg>
