<?xml version="1.0" encoding="utf-8"?>
<!-- Generator: Adobe Illustrator 16.0.0, SVG Export Plug-In . SVG Version: 6.00 Build 0)  -->
<!DOCTYPE svg PUBLIC "-//W3C//DTD SVG 1.1//EN" "http://www.w3.org/Graphics/SVG/1.1/DTD/svg11.dtd">
<svg version="1.1" id="Layer_1" xmlns="http://www.w3.org/2000/svg" xmlns:xlink="http://www.w3.org/1999/xlink" x="0px" y="0px"
	 width="155.34px" height="155.34px" viewBox="0 0 155.34 155.34" enable-background="new 0 0 155.34 155.34" xml:space="preserve">
<g>
	<g>
		<path fill-rule="evenodd" clip-rule="evenodd" fill="#7EB143" d="M-1.942,28.924c0-0.813,0-1.627,0-2.441
			c1.008-0.063,1.062-0.794,1.372-1.576c4.501-11.327,11.48-20.331,23.52-24.528c0.83-0.289,1.165-1.046,0.869-1.958
			C60.203-1.57,96.585-1.562,132.969-1.553c0.15,1.952,1.838,2.694,3.186,3.169c6.438,2.273,10.529,7.33,14.836,12.093
			c2.508,2.773,2.93,7.076,6.5,9.149c-0.009,36.61-0.018,73.22-0.027,109.831c-4.662,5.054-7.063,11.715-12.822,16.16
			c-4.779,3.689-10.523,5.044-15.391,8.24c-6.949-0.002-13.898-0.004-20.849-0.005c0.071-18.05,0.405-36.106,0.065-54.147
			c-0.11-5.855,1.86-7.091,7.28-6.938c13.243,0.37,13.244,0.129,15.081-12.75c0.258-1.808,0.589-3.604,0.91-5.4
			c0.803-4.495-0.488-7.051-5.646-6.185c-0.997,0.167-2.037,0.082-3.058,0.089c-14.821,0.098-14.821,0.097-14.441-14.898
			c0.193-7.659,2.877-10.378,10.504-11.52c4.54-0.68,10.867,2.28,13.202-1.623c2.171-3.63,0.613-9.469,0.693-14.335
			c0.007-0.406-0.07-0.822-0.006-1.217c0.631-3.857-1.486-5.013-4.879-5.022c-6.121-0.016-12.278-0.514-18.352-0.003
			c-6.753,0.568-12.621,3.207-17.65,8.299c-7.614,7.712-8.405,17.059-8.345,26.92c0.081,13.281,0.015,13.625-13.388,13.187
			c-6.078-0.199-8.187,1.755-7.288,7.494c0.125,0.793,0.007,1.623,0.009,2.435c0.031,14.41,0.039,14.738,14.187,14.427
			c5.756-0.127,6.684,2.024,6.626,6.988c-0.213,18.063-0.053,36.13-0.033,54.195c-18.805-0.004-37.609-0.009-56.414-0.013
			c-0.255-1.239-1.358-1.414-2.288-1.693c-13.151-3.94-21.583-12.454-25.217-25.652c-0.271-0.986-0.598-1.967-1.921-1.949
			c0-1.627,0-3.255,0.001-4.882c2.197-1.09,1.448-3.155,1.45-4.827c0.034-28.512,0.002-57.02-0.028-85.53
			C-0.545,31.175-0.167,29.623-1.942,28.924z"/>
		<path fill-rule="evenodd" clip-rule="evenodd" fill="#FCFDF8" d="M83.874,157.079c-0.02-18.065-0.18-36.132,0.033-54.195
			c0.058-4.964-0.87-7.115-6.626-6.988c-14.148,0.312-14.156-0.017-14.187-14.427c-0.002-0.812,0.115-1.642-0.009-2.435
			c-0.898-5.739,1.21-7.693,7.288-7.494c13.402,0.438,13.469,0.095,13.388-13.187c-0.061-9.861,0.73-19.208,8.345-26.92
			c5.029-5.093,10.897-7.731,17.65-8.299c6.073-0.511,12.23-0.013,18.352,0.003c3.393,0.01,5.51,1.166,4.879,5.022
			c-0.064,0.395,0.013,0.811,0.006,1.217c-0.08,4.867,1.478,10.705-0.693,14.335c-2.335,3.902-8.662,0.942-13.202,1.623
			c-7.627,1.142-10.311,3.86-10.504,11.52c-0.38,14.996-0.38,14.996,14.441,14.898c1.021-0.007,2.061,0.079,3.058-0.089
			c5.158-0.866,6.449,1.689,5.646,6.185c-0.321,1.797-0.652,3.593-0.91,5.4c-1.837,12.879-1.838,13.12-15.081,12.75
			c-5.42-0.152-7.391,1.083-7.28,6.938c0.34,18.041,0.006,36.098-0.065,54.147C100.226,157.083,92.05,157.081,83.874,157.079z"/>
		<path fill-rule="evenodd" clip-rule="evenodd" fill="#FCFDF8" d="M-1.966,127.771c1.323-0.018,1.649,0.963,1.921,1.949
			c3.635,13.198,12.066,21.712,25.217,25.652c0.93,0.279,2.033,0.454,2.288,1.693c-8.789-0.002-17.582-0.137-26.366,0.075
			c-2.645,0.063-3.213-0.504-3.148-3.136C-1.838,145.267-1.969,136.518-1.966,127.771z"/>
		<path fill-rule="evenodd" clip-rule="evenodd" fill="#FCFDF8" d="M23.82-1.578c0.296,0.911-0.039,1.668-0.869,1.958
			C10.911,4.577,3.932,13.581-0.569,24.908c-0.31,0.781-0.364,1.512-1.372,1.576c0.002-8.339,0.143-16.681-0.075-25.014
			c-0.069-2.633,0.503-3.214,3.15-3.133C8.69-1.433,16.257-1.58,23.82-1.578z"/>
		<path fill-rule="evenodd" clip-rule="evenodd" fill="#FCFDF8" d="M129.25,157.09c4.867-3.196,10.611-4.551,15.391-8.24
			c5.76-4.445,8.16-11.106,12.822-16.16c-0.001,7.118-0.159,14.242,0.075,21.354c0.088,2.635-0.504,3.202-3.149,3.134
			C146.015,156.956,137.63,157.092,129.25,157.09z"/>
		<path fill-rule="evenodd" clip-rule="evenodd" fill="#FCFDF8" d="M157.49,22.859c-3.57-2.074-3.992-6.376-6.5-9.149
			c-4.307-4.763-8.397-9.82-14.836-12.093c-1.348-0.476-3.035-1.217-3.186-3.169c7.358,0.001,14.719,0.111,22.073-0.062
			c2.135-0.05,2.573,0.385,2.521,2.51C157.386,8.213,157.492,15.537,157.49,22.859z"/>
		<path fill-rule="evenodd" clip-rule="evenodd" fill="#C9E0A0" d="M-1.942,28.924c1.775,0.698,1.397,2.25,1.398,3.608
			c0.03,28.51,0.062,57.018,0.028,85.53c-0.001,1.672,0.748,3.737-1.45,4.827C-1.958,91.569-1.95,60.246-1.942,28.924z"/>
	</g>
</g>
</svg>
