<?xml version="1.0" encoding="utf-8"?>
<!-- Generator: Adobe Illustrator 16.0.0, SVG Export Plug-In . SVG Version: 6.00 Build 0)  -->
<!DOCTYPE svg PUBLIC "-//W3C//DTD SVG 1.1//EN" "http://www.w3.org/Graphics/SVG/1.1/DTD/svg11.dtd">
<svg version="1.1" id="Layer_1" xmlns="http://www.w3.org/2000/svg" xmlns:xlink="http://www.w3.org/1999/xlink" x="0px" y="0px"
	 width="75.97px" height="75.97px" viewBox="0 0 75.97 75.97" enable-background="new 0 0 75.97 75.97" xml:space="preserve">
<g>
	<g>
		<path fill-rule="evenodd" clip-rule="evenodd" fill="#7CA744" d="M77,12.785c0,17.6,0,35.2,0,52.799
			c-0.949-0.119-1.144,0.68-1.396,1.264c-2.014,4.682-5.43,7.83-10.225,9.52c-0.548,0.193-1.128,0.432-0.979,1.217
			c-17.801,0-35.6,0-53.4,0c-0.274-0.885-0.94-1.367-1.71-1.818c-3.567-2.09-6.908-4.414-8.422-8.547
			c-0.193-0.529-0.544-1.061-1.268-1.033c0-18.201,0-36.401,0-54.601c1.026-0.144,1.016-1.089,1.373-1.76
			c1.538-2.89,3.338-5.472,6.234-7.3c1.473-0.93,3.733-0.799,4.393-2.94c17.6,0,35.2,0,52.8,0c2.475,1.688,5.017,3.288,7.407,5.09
			C74.509,6.711,75.277,10.072,77,12.785z M66.948,38.478c0.372-4.796,0.367-9.59-0.084-14.374
			c-0.681-7.229-5.867-13.014-13.127-13.789c-10.145-1.083-20.356-1.026-30.502-0.018c-7.258,0.722-12.512,5.994-13.314,13.276
			C8.813,33.619,8.801,43.729,9.85,53.781c0.742,7.117,5.459,12.07,12.51,13.109c10.126,1.494,20.351,1.023,30.498,0.27
			c8.264-0.613,14.088-7.619,14.09-15.504C66.949,47.264,66.948,42.871,66.948,38.478z"/>
		<path fill-rule="evenodd" clip-rule="evenodd" fill="#F5F7ED" d="M77,12.785c-1.723-2.712-2.491-6.074-5.192-8.11
			c-2.391-1.802-4.933-3.401-7.407-5.09c4.199,0,8.399,0,12.6,0C77,3.985,77,8.385,77,12.785z"/>
		<path fill-rule="evenodd" clip-rule="evenodd" fill="#F5F7ED" d="M64.4,77.584c-0.148-0.785,0.432-1.023,0.979-1.217
			c4.795-1.689,8.211-4.838,10.225-9.52c0.252-0.584,0.446-1.383,1.396-1.264c0,4.002,0,8,0,12C72.8,77.584,68.6,77.584,64.4,77.584
			z"/>
		<path fill-rule="evenodd" clip-rule="evenodd" fill="#F5F7ED" d="M11.6-0.415c-0.66,2.141-2.92,2.01-4.393,2.94
			c-2.896,1.828-4.697,4.411-6.234,7.3c-0.357,0.671-0.346,1.616-1.373,1.76c0-4,0-8,0-12C3.6-0.415,7.6-0.415,11.6-0.415z"/>
		<path fill-rule="evenodd" clip-rule="evenodd" fill="#F5F7ED" d="M-0.4,66.186c0.724-0.027,1.075,0.504,1.268,1.033
			c1.514,4.133,4.855,6.457,8.422,8.547c0.77,0.451,1.436,0.934,1.71,1.818c-3.8,0-7.6,0-11.4,0C-0.4,73.785-0.4,69.984-0.4,66.186z
			"/>
		<path fill-rule="evenodd" clip-rule="evenodd" fill="#F5F7ED" d="M66.948,38.478c0,4.394,0.001,8.786-0.001,13.179
			c-0.002,7.885-5.826,14.891-14.09,15.504c-10.147,0.754-20.372,1.225-30.498-0.27c-7.05-1.039-11.768-5.992-12.51-13.109
			C8.801,43.729,8.813,33.619,9.92,23.574c0.802-7.283,6.057-12.555,13.314-13.276c10.146-1.008,20.358-1.065,30.502,0.018
			c7.26,0.775,12.446,6.56,13.127,13.789C67.315,28.887,67.32,33.681,66.948,38.478z M37.927,61.947c0,0.01,0,0.018,0,0.027
			c4.299,0,8.603,0.137,12.895-0.033c6.314-0.25,9.858-3.387,10.591-9.568c1.05-8.861,0.838-17.789,0.226-26.651
			c-0.492-7.137-4.359-10.358-11.675-10.504c-7.695-0.153-15.399-0.14-23.095,0.007C19.88,15.358,15.6,18.114,15.02,26.246
			c-0.618,8.672-0.744,17.381,0.093,26.061c0.555,5.756,4.198,9.346,9.922,9.604C29.325,62.102,33.629,61.947,37.927,61.947z"/>
		<path fill-rule="evenodd" clip-rule="evenodd" fill="#7CA744" d="M37.927,61.947c-4.298,0-8.602,0.154-12.892-0.037
			c-5.724-0.258-9.368-3.848-9.922-9.604c-0.836-8.68-0.71-17.389-0.093-26.061c0.58-8.131,4.86-10.887,11.848-11.021
			c7.696-0.147,15.399-0.16,23.095-0.007c7.315,0.146,11.183,3.367,11.675,10.504c0.612,8.862,0.824,17.79-0.226,26.651
			c-0.732,6.182-4.276,9.318-10.591,9.568c-4.292,0.17-8.596,0.033-12.895,0.033C37.927,61.965,37.927,61.957,37.927,61.947z
			 M23.495,38.521c-0.187,9.149,6.388,14.723,14.41,15.004c8.24,0.289,15.123-6.391,15.246-14.438
			c0.13-8.451-6.358-15.285-14.618-15.441C30.862,23.501,23.178,30.467,23.495,38.521z M53.554,26.656
			c1.869-0.018,4.183-1.784,4.17-3.016c-0.019-1.827-2.522-4.35-4.32-4.23c-2.428,0.161-3.161,2.082-3.174,3.958
			C50.215,25.394,51.671,26.545,53.554,26.656z"/>
		<path fill-rule="evenodd" clip-rule="evenodd" fill="#F5F7ED" d="M23.495,38.521c-0.317-8.054,7.367-15.02,15.039-14.875
			c8.259,0.157,14.748,6.99,14.618,15.441c-0.123,8.047-7.006,14.727-15.246,14.438C29.883,53.244,23.309,47.67,23.495,38.521z
			 M47.723,38.74c0.041-5.125-4.243-9.584-9.235-9.615c-5.33-0.033-9.85,4.381-9.795,9.564c0.055,5.188,4.416,9.54,9.549,9.526
			C43.471,48.203,47.681,43.996,47.723,38.74z"/>
		<path fill-rule="evenodd" clip-rule="evenodd" fill="#F5F7ED" d="M53.554,26.656c-1.883-0.111-3.339-1.263-3.324-3.288
			c0.013-1.877,0.746-3.797,3.174-3.958c1.798-0.12,4.302,2.404,4.32,4.23C57.736,24.873,55.423,26.639,53.554,26.656z"/>
		<path fill-rule="evenodd" clip-rule="evenodd" fill="#7CA744" d="M47.723,38.74c-0.042,5.256-4.252,9.463-9.481,9.475
			c-5.133,0.014-9.494-4.338-9.549-9.526c-0.055-5.184,4.465-9.598,9.795-9.564C43.479,29.155,47.764,33.615,47.723,38.74z"/>
	</g>
</g>
</svg>
