<?xml version="1.0" encoding="utf-8"?>
<!-- Generator: Adobe Illustrator 16.0.0, SVG Export Plug-In . SVG Version: 6.00 Build 0)  -->
<!DOCTYPE svg PUBLIC "-//W3C//DTD SVG 1.1//EN" "http://www.w3.org/Graphics/SVG/1.1/DTD/svg11.dtd">
<svg version="1.1" id="Layer_1" xmlns="http://www.w3.org/2000/svg" xmlns:xlink="http://www.w3.org/1999/xlink" x="0px" y="0px"
	 width="200px" height="200px" viewBox="0 0 200 200" enable-background="new 0 0 200 200" xml:space="preserve">
<g>
	<g>
		<path fill-rule="evenodd" clip-rule="evenodd" fill="none" d="M200.969,200.969c-66.677,0-133.323,0-199.938,0
			c0-66.677,0-133.323,0-199.938c66.677,0,133.323,0,199.938,0C200.969,67.708,200.969,134.354,200.969,200.969z M155.214,51.499
			c0-0.999-0.007-1.999,0.001-2.998c0.166-20.91-18.63-32.647-34.809-27.578c-12.046,3.775-24.204,3.868-36.338,0.115
			c-17.768-5.495-35.659,7.473-35.396,28.466c0.158,12.572,3.333,24.278,7.956,35.752c1.511,3.75,2.229,7.576,2.195,11.654
			c-0.137,16.828,0.409,33.633,3.176,50.269c1.666,10.014,3.864,19.927,9.481,28.646c1.377,2.138,3.313,4.182,6.043,3.659
			c2.613-0.501,3.131-3.174,3.69-5.459c1.589-6.488,1.99-13.147,2.807-19.745c1.497-12.11,3.862-24.014,10.088-34.69
			c5.179-8.882,10.586-8.831,15.796-0.003c5.054,8.563,7.404,18.081,9.101,27.778c1.574,9.007,1.687,18.226,3.908,27.138
			c0.528,2.123,1.104,4.507,3.554,4.977c2.567,0.491,4.341-1.345,5.752-3.253c3.416-4.622,5.248-9.984,6.752-15.433
			c5.638-20.43,6.163-41.393,6.196-62.38c0.008-4.899,0.78-9.478,2.579-14.075C151.873,73.794,155.444,63.062,155.214,51.499z"/>
		<path fill-rule="evenodd" clip-rule="evenodd" fill="#262E36" d="M155.214,51.499c0.23,11.563-3.341,22.295-7.467,32.84
			c-1.799,4.597-2.571,9.176-2.579,14.075c-0.033,20.988-0.559,41.951-6.196,62.38c-1.504,5.448-3.336,10.811-6.752,15.433
			c-1.411,1.908-3.185,3.744-5.752,3.253c-2.449-0.47-3.025-2.854-3.554-4.977c-2.222-8.912-2.334-18.131-3.908-27.138
			c-1.696-9.697-4.047-19.215-9.101-27.778c-5.21-8.828-10.617-8.879-15.796,0.003c-6.227,10.677-8.591,22.58-10.088,34.69
			c-0.816,6.598-1.218,13.257-2.807,19.745c-0.56,2.285-1.077,4.958-3.69,5.459c-2.729,0.522-4.666-1.521-6.043-3.659
			c-5.617-8.72-7.815-18.633-9.481-28.646c-2.767-16.636-3.313-33.441-3.176-50.269c0.033-4.078-0.685-7.904-2.195-11.654
			c-4.622-11.474-7.798-23.181-7.956-35.752c-0.263-20.993,17.628-33.961,35.396-28.466c12.134,3.752,24.292,3.66,36.338-0.115
			c16.179-5.069,34.975,6.668,34.809,27.578C155.207,49.5,155.214,50.5,155.214,51.499z M75.508,169.599
			c0.945-7.812,1.558-14.198,2.517-20.532c1.85-12.216,4.523-24.232,11.562-34.688c7.293-10.836,17.518-10.747,24.912,0.038
			c4.094,5.972,6.412,12.719,8.404,19.601c3.229,11.152,3.849,22.741,5.539,34.899c2.687-3.734,3.438-7.47,4.405-11.023
			c5.476-20.128,5.473-40.817,5.868-61.438c0.098-5.089,0.866-9.86,2.814-14.546c4.241-10.2,7.181-20.744,7.206-31.885
			c0.032-14.172-7.82-22.93-20.916-23.435c-3.949,11.293-11.424,18.702-23.811,19.492c-14.445,0.922-23.297-6.851-28.155-19.711
			c-13.92,2.028-20.708,9.817-20.593,23.696c0.083,10.084,2.24,19.828,6.178,29.08c2.792,6.561,3.874,13.226,3.905,20.349
			c0.064,14.646,0.576,29.304,2.73,43.829C69.35,151.919,71.177,160.388,75.508,169.599z"/>
		<path fill-rule="evenodd" clip-rule="evenodd" fill="none" d="M75.508,169.599c-4.332-9.211-6.159-17.68-7.434-26.275
			c-2.154-14.525-2.666-29.183-2.73-43.829c-0.031-7.123-1.112-13.788-3.905-20.349c-3.938-9.252-6.095-18.996-6.178-29.08
			c-0.115-13.879,6.673-21.668,20.593-23.696c4.858,12.861,13.71,20.633,28.155,19.711c12.387-0.79,19.861-8.199,23.811-19.492
			c13.096,0.505,20.948,9.263,20.916,23.435c-0.025,11.142-2.965,21.686-7.206,31.885c-1.948,4.687-2.717,9.458-2.814,14.546
			c-0.396,20.62-0.393,41.31-5.868,61.438c-0.967,3.554-1.719,7.289-4.405,11.023c-1.69-12.158-2.31-23.747-5.539-34.899
			c-1.992-6.882-4.311-13.629-8.404-19.601c-7.395-10.785-17.619-10.874-24.912-0.038c-7.038,10.456-9.712,22.473-11.562,34.688
			C77.066,155.4,76.453,161.787,75.508,169.599z"/>
	</g>
</g>
</svg>
