<?xml version="1.0" encoding="utf-8"?>
<!-- Generator: Adobe Illustrator 16.0.0, SVG Export Plug-In . SVG Version: 6.00 Build 0)  -->
<!DOCTYPE svg PUBLIC "-//W3C//DTD SVG 1.1//EN" "http://www.w3.org/Graphics/SVG/1.1/DTD/svg11.dtd">
<svg version="1.1" id="Layer_1" xmlns="http://www.w3.org/2000/svg" xmlns:xlink="http://www.w3.org/1999/xlink" x="0px" y="0px"
	 width="200px" height="200px" viewBox="0 0 200 200" enable-background="new 0 0 200 200" xml:space="preserve">
<g>
	<g>
		<path fill-rule="evenodd" clip-rule="evenodd" fill="none" d="M200.969,200.969c-66.677,0-133.323,0-199.938,0
			c0-66.677,0-133.323,0-199.938c66.677,0,133.323,0,199.938,0C200.969,67.708,200.969,134.354,200.969,200.969z M145.859,84.813
			c5.6-12.83,9.258-25.911,8.222-40.007c-1.292-17.57-16.265-29.202-33.387-24.898c-13.455,3.382-26.492,3.231-39.875-0.157
			c-14.596-3.695-28.627,5.022-31.898,19.684c-3.571,16.008,1.131,30.913,7.188,45.801c5.838-0.278,11.601,0.497,16.959-0.425
			c1.417-2.042,1.124-3.746,1.132-5.379c0.026-5.499-0.082-11,0.042-16.497c0.156-6.944,4.049-10.861,10.885-10.914
			c10.498-0.082,20.996-0.067,31.494-0.005c6.94,0.041,10.906,3.81,11.115,10.666c0.168,5.494,0.025,10.997,0.073,16.496
			c0.016,1.785-0.49,3.699,1.348,5.636C134.368,84.813,139.96,84.813,145.859,84.813z M76.533,178.686
			c3.506-2.077,3.786-5.414,4.283-8.439c0.917-5.577,1.493-11.211,2.174-16.825c1.471-12.117,3.868-24.007,10.028-34.718
			c5.229-9.092,10.801-8.995,16.071,0.154c4.873,8.461,7.359,17.783,8.868,27.341c1.219,7.719,1.901,15.521,3.11,23.241
			c0.542,3.465,0.584,7.451,4.716,9.284c5.584-1.284,7.348-5.981,9.165-10.373c6.735-16.272,7.938-33.572,8.835-50.858
			c0.436-8.391,0.075-16.823,0.075-25.489c-4.426,0-8.57,0.108-12.707-0.025c-5.958-0.192-9.961-4.135-10.125-10.099
			c-0.159-5.825-0.03-11.658-0.041-17.488c-0.004-1.807,0.316-3.719-1.779-5.27c-12.076,0-24.489,0-36.468,0
			c-2.057,1.746-1.729,3.651-1.73,5.46c-0.006,5.497,0.072,10.994-0.001,16.489c-0.091,6.833-4.066,10.82-10.843,10.932
			c-4.084,0.067-8.171,0.012-12.251,0.012c-0.386,16.867,0.214,33.004,2.257,49.046c1.303,10.234,3.447,20.338,7.964,29.732
			C69.857,174.374,71.707,178.038,76.533,178.686z"/>
		<path fill-rule="evenodd" clip-rule="evenodd" fill="#202A33" d="M145.859,84.813c-5.899,0-11.491,0-16.701,0
			c-1.838-1.938-1.332-3.852-1.348-5.636c-0.048-5.499,0.095-11.001-0.073-16.496c-0.209-6.856-4.175-10.625-11.115-10.666
			c-10.498-0.062-20.997-0.077-31.494,0.005c-6.836,0.053-10.729,3.97-10.885,10.914c-0.124,5.496-0.016,10.998-0.042,16.497
			c-0.008,1.634,0.286,3.338-1.132,5.379c-5.358,0.922-11.121,0.147-16.959,0.425c-6.058-14.889-10.76-29.793-7.188-45.801
			C52.193,24.772,66.224,16.055,80.82,19.75c13.382,3.388,26.419,3.539,39.875,0.157c17.122-4.304,32.095,7.329,33.387,24.898
			C155.117,58.902,151.459,71.983,145.859,84.813z"/>
		<path fill-rule="evenodd" clip-rule="evenodd" fill="#202A33" d="M76.533,178.686c-4.826-0.647-6.676-4.312-8.398-7.893
			c-4.518-9.395-6.661-19.498-7.964-29.732c-2.043-16.042-2.643-32.18-2.257-49.046c4.081,0,8.167,0.055,12.251-0.012
			c6.776-0.112,10.752-4.099,10.843-10.932c0.073-5.495-0.005-10.993,0.001-16.489c0.002-1.809-0.326-3.715,1.73-5.46
			c11.979,0,24.392,0,36.468,0c2.096,1.551,1.775,3.463,1.779,5.27c0.011,5.83-0.118,11.663,0.041,17.488
			c0.164,5.964,4.167,9.907,10.125,10.099c4.137,0.133,8.281,0.025,12.707,0.025c0,8.666,0.36,17.099-0.075,25.489
			c-0.897,17.286-2.1,34.586-8.835,50.858c-1.817,4.392-3.581,9.089-9.165,10.373c-4.132-1.833-4.174-5.819-4.716-9.284
			c-1.209-7.72-1.892-15.522-3.11-23.241c-1.509-9.558-3.995-18.88-8.868-27.341c-5.271-9.149-10.842-9.246-16.071-0.154
			c-6.161,10.711-8.558,22.601-10.028,34.718c-0.682,5.614-1.257,11.248-2.174,16.825C80.319,173.271,80.04,176.608,76.533,178.686z
			 M64.069,98.741c1.238,23.658,0.603,46.788,10.184,68.375c1.079-5.023,1.558-9.99,2.266-14.924
			c0.707-4.93,1.427-9.875,2.526-14.728c1.987-8.78,4.611-17.392,9.992-24.786c7.13-9.8,16.583-9.84,23.77-0.158
			c1.669,2.249,3.042,4.763,4.26,7.295c3.479,7.229,5.679,14.898,6.955,22.789c1.322,8.18,2.305,16.415,3.436,24.626
			c9.701-21.855,9.402-44.951,10.356-67.562c-1.443-1.259-2.651-0.896-3.776-0.917c-13.563-0.249-19.78-6.521-19.781-19.989
			c0-4.423,0-8.846,0-13.328c-9.149,0-17.571,0-26.517,0c0,5.337,0.085,10.456-0.018,15.57
			c-0.213,10.599-6.961,17.396-17.504,17.728C68.41,98.79,66.599,98.741,64.069,98.741z"/>
		<path fill-rule="evenodd" clip-rule="evenodd" fill="none" d="M64.069,98.741c2.53,0,4.341,0.049,6.149-0.008
			c10.543-0.331,17.291-7.128,17.504-17.728c0.103-5.115,0.018-10.233,0.018-15.57c8.946,0,17.367,0,26.517,0
			c0,4.482,0,8.905,0,13.328c0.001,13.468,6.218,19.741,19.781,19.989c1.125,0.021,2.333-0.342,3.776,0.917
			c-0.954,22.61-0.655,45.706-10.356,67.562c-1.131-8.211-2.113-16.446-3.436-24.626c-1.276-7.891-3.477-15.56-6.955-22.789
			c-1.218-2.532-2.591-5.046-4.26-7.295c-7.188-9.682-16.64-9.642-23.77,0.158c-5.381,7.395-8.005,16.006-9.992,24.786
			c-1.099,4.853-1.819,9.798-2.526,14.728c-0.708,4.934-1.188,9.9-2.266,14.924C64.671,145.529,65.307,122.399,64.069,98.741z"/>
	</g>
</g>
</svg>
