<?xml version="1.0" encoding="utf-8"?>
<!-- Generator: Adobe Illustrator 16.0.0, SVG Export Plug-In . SVG Version: 6.00 Build 0)  -->
<!DOCTYPE svg PUBLIC "-//W3C//DTD SVG 1.1//EN" "http://www.w3.org/Graphics/SVG/1.1/DTD/svg11.dtd">
<svg version="1.1" id="Layer_1" xmlns="http://www.w3.org/2000/svg" xmlns:xlink="http://www.w3.org/1999/xlink" x="0px" y="0px"
	 width="155px" height="122px" viewBox="0 0 155 122" enable-background="new 0 0 155 122" xml:space="preserve">
<g>
	<g>
		<path fill-rule="evenodd" clip-rule="evenodd" fill="#A9D171" d="M-0.26,122.44c0-40.88,0-81.76,0-122.64
			c51.92,0,103.84,0,155.76,0c0,40.88,0,81.76,0,122.64C103.58,122.44,51.66,122.44-0.26,122.44z M38.676,28.264
			c-0.458,0.438-0.366,0.943-0.271,1.43c0.433,2.236,0.909,4.464,1.309,6.706c0.154,0.864,0.588,1.426,1.307,1.889
			c6.324,4.08,13.253,6.298,20.751,6.727c3.381,0.193,6.751,0.045,10.099-0.54c7.873-1.376,14.827-4.717,20.887-9.879
			c5.729-4.879,9.896-10.89,12.557-17.937c0.579-1.534,1.051-3.104,1.578-4.655c0.207-0.608,0.271-1.236,0.002-1.858
			c-0.592-0.024-0.979,0.307-1.38,0.595c-3.007,2.155-6.051,4.253-9.25,6.119c-3.553,2.072-7.249,3.819-11.217,4.949
			c-2.421,0.689-4.876,1.069-7.404,0.821c-1.21-0.119-2.327,0.163-3.377,0.803c-3.556,2.166-7.348,3.791-11.369,4.877
			c-3.137,0.847-6.33,1.331-9.573,1.528c-2.946,0.18-5.873,0.066-8.788-0.388C42.581,29.146,40.646,28.732,38.676,28.264z
			 M54.484,71.747c0.102,0.032,0.158,0.062,0.215,0.066c0.139,0.013,0.279,0.015,0.419,0.019c1.897,0.047,3.57-0.567,5.066-1.711
			c1.18-0.902,2.233-1.94,3.23-3.035c1.981-2.172,4.014-4.293,6.107-6.356c1.757-1.732,3.626-3.322,5.774-4.556
			c0.851-0.488,1.719-0.938,2.672-1.203c0.987-0.275,1.931-0.205,2.849,0.273c0.585,0.304,1.184,0.583,1.787,0.849
			c1.18,0.52,2.236,1.229,3.247,2.022c2.337,1.835,4.391,3.962,6.41,6.128c1.39,1.491,2.724,3.036,4.192,4.452
			c1.355,1.306,2.866,2.365,4.696,2.906c0.499,0.148,1.006,0.268,1.524,0.312c1.559,0.132,2.751-0.485,3.622-1.777
			c1.323-1.962,2.422-4.045,3.368-6.211c2.061-4.711,3.743-9.564,5.393-14.429c0.147-0.435,0.318-0.862,0.396-1.319
			c0.125-0.731-0.06-1.19-0.704-1.561c-0.38-0.218-0.785-0.396-1.188-0.57c-5.056-2.189-10.313-3.529-15.832-3.77
			c-4.261-0.187-8.479,0.151-12.605,1.238c-10.431,2.746-18.824,8.494-25.112,17.267c-1.95,2.721-3.595,5.625-4.815,8.753
			C54.917,70.255,54.646,70.982,54.484,71.747z M91.104,39.723c0.222,0.084,0.422,0.049,0.619,0.039
			c0.738-0.038,1.477-0.091,2.216-0.115c4.014-0.129,7.99,0.173,11.91,1.078c3.403,0.786,6.653,2.012,9.841,3.417
			c0.631,0.278,0.846,0.197,1.081-0.45c0.115-0.318,0.187-0.653,0.281-0.979c1.162-3.997,2.067-8.052,2.803-12.147
			c0.566-3.149,0.985-6.32,1.401-9.491c0.265-2.025,0.411-4.058,0.274-6.102c-0.082-1.223-0.294-2.423-0.735-3.57
			c-0.627-1.629-1.624-2.944-3.293-3.618c-2.006-0.81-4.035-0.62-6.056-0.046c-0.509,0.144-0.83,0.536-1.055,1.005
			c-0.235,0.491-0.372,1.014-0.487,1.541c-0.428,1.954-0.938,3.886-1.575,5.782c-2.146,6.386-5.479,12.066-10.116,16.967
			c-2.025,2.14-4.221,4.089-6.609,5.817C91.32,39.058,91.071,39.276,91.104,39.723z M72.141,21.536
			c-0.375-0.149-0.649-0.26-0.924-0.369c-1.598-0.632-3.208-1.233-4.766-1.964c-3.505-1.643-6.769-3.693-9.946-5.89
			c-1.824-1.262-3.584-2.617-5.508-3.733c-2.063-1.197-4.232-2.071-6.636-2.272c-1.193-0.1-2.362-0.006-3.476,0.446
			c-1.708,0.693-2.738,2.013-3.351,3.706c-0.482,1.332-0.63,2.723-0.704,4.121c-0.113,2.123,0.023,4.233,0.369,6.332
			c0.133,0.808,0.22,1.623,0.333,2.434c0.072,0.519,0.323,0.902,0.855,1.04c1.392,0.358,2.773,0.774,4.182,1.05
			c1.843,0.362,3.717,0.518,5.594,0.641c3.023,0.199,6.033,0.102,9.033-0.302c4.479-0.604,8.7-2.053,12.777-3.954
			C70.695,22.485,71.396,22.1,72.141,21.536z M41.344,41.78c-0.151,0.208-0.069,0.36-0.028,0.509
			c1.209,4.413,2.495,8.803,4.042,13.112c1.691,4.711,3.687,9.284,6.202,13.62c0.128,0.22,0.211,0.476,0.447,0.639
			c0.179-0.097,0.211-0.285,0.283-0.442c0.284-0.617,0.552-1.241,0.843-1.855c3.646-7.708,8.739-14.248,15.618-19.348
			c0.086-0.064,0.233-0.101,0.186-0.31C59.162,48.444,49.971,46.369,41.344,41.78z M73.297,102.314c0.018,0,0.035,0,0.053,0
			c0-0.199,0-0.399,0-0.599c0-3.14,0.001-6.28,0-9.42c0-0.26-0.017-0.52-0.038-0.778c-0.118-1.449-0.64-1.901-2.089-1.814
			c-0.08,0.005-0.16,0.008-0.239,0.021c-0.589,0.097-0.984,0.415-1.145,1.001c-0.101,0.369-0.144,0.745-0.151,1.127
			c-0.031,1.6-0.068,3.198-0.097,4.798c-0.013,0.7,0.004,1.4-0.021,2.1c-0.024,0.686-0.343,1.022-1.02,1.107
			c-0.256,0.032-0.519,0.023-0.779,0.022c-3.02-0.016-6.039-0.037-9.059-0.051c-1.44-0.006-2.88,0.006-4.32-0.001
			c-1.18-0.006-1.505-0.337-1.507-1.496c0-0.16,0.003-0.32,0.004-0.479c0.003-2.12,0.016-4.24,0.005-6.36
			c-0.006-1.1-0.6-1.695-1.696-1.769c-0.284-0.02-0.558,0.027-0.831,0.091c-0.582,0.136-0.932,0.503-1.101,1.069
			c-0.118,0.393-0.089,0.793-0.089,1.191c0,5.659,0.004,11.319,0.007,16.979c0.001,1.2,0.002,2.399,0,3.6
			c0,0.425,0.061,0.838,0.223,1.231c0.301,0.73,0.865,1.043,1.793,1c0.774-0.035,1.29-0.416,1.516-1.136
			c0.12-0.383,0.169-0.777,0.167-1.182c-0.014-3-0.021-6-0.029-9c-0.004-1.312,0.324-1.648,1.615-1.648
			c4.52-0.001,9.04-0.001,13.559,0.002c0.239,0.001,0.483,0.009,0.715,0.058c0.479,0.102,0.776,0.404,0.833,0.899
			c0.034,0.297,0.044,0.599,0.045,0.897c0.003,2.34-0.004,4.68,0.005,7.02c0.003,0.859,0.022,1.721,0.075,2.578
			c0.047,0.75,0.386,1.193,0.994,1.341c0.49,0.118,0.994,0.114,1.485-0.016c0.656-0.174,0.997-0.64,1.094-1.287
			c0.041-0.275,0.034-0.559,0.034-0.838c-0.001-3.14-0.006-6.28-0.009-9.42C73.297,102.874,73.297,102.594,73.297,102.314z
			 M88.069,102.409c-0.304-0.396-0.345-0.846-0.346-1.309c-0.008-2.64-0.017-5.279-0.027-7.919c-0.002-0.619,0.007-1.24-0.023-1.859
			c-0.032-0.661-0.288-1.21-0.947-1.471c-0.478-0.188-0.978-0.204-1.476-0.089c-0.555,0.128-0.907,0.469-1.055,1.029
			c-0.077,0.295-0.094,0.59-0.094,0.891c0.003,7.079,0.006,14.159,0.009,21.238c0,0.24,0.007,0.479,0.064,0.715
			c0.164,0.673,0.604,1.058,1.302,1.129c1.05,0.109,1.707-0.159,2.009-0.824c0.041-0.091,0.067-0.188,0.1-0.282
			c0.093-0.27,0.09-0.55,0.099-0.83c0.054-1.759-0.016-3.519,0.099-5.277c0.08-1.229,0.559-2.229,1.48-3.035
			c0.738-0.646,1.506-1.254,2.291-1.84c0.713-0.531,1.084-0.499,1.726,0.146c0.832,0.837,1.664,1.675,2.463,2.542
			c1.685,1.833,3.164,3.815,4.268,6.061c0.354,0.719,0.604,1.481,0.938,2.207c0.557,1.214,1.844,1.585,2.961,0.882
			c0.506-0.318,0.74-0.765,0.642-1.371c-0.055-0.338-0.159-0.66-0.291-0.974c-1.063-2.527-2.474-4.84-4.292-6.895
			c-1.484-1.678-2.98-3.343-4.466-5.02c-0.152-0.172-0.366-0.313-0.416-0.639c0.253-0.24,0.53-0.499,0.803-0.762
			c1.654-1.599,3.311-3.193,4.901-4.854c0.69-0.722,1.421-1.412,1.998-2.232c0.415-0.592,0.371-1.156-0.062-1.65
			c-0.421-0.48-0.988-0.567-1.636-0.261c-0.522,0.247-0.9,0.659-1.257,1.093c-2.501,3.052-5.234,5.885-8.069,8.623
			c-0.892,0.862-1.792,1.716-2.836,2.396C88.666,102.14,88.421,102.353,88.069,102.409z M124.022,106.125c0-0.025,0-0.051,0-0.076
			c1.58,0,3.159,0.006,4.738-0.002c1.187-0.005,1.728,0.358,2.126,1.456c0.287,0.789,0.568,1.58,0.869,2.363
			c0.467,1.213,0.937,2.424,1.428,3.626c0.411,1.007,1.022,1.368,2.109,1.301c0.079-0.005,0.159-0.01,0.239-0.019
			c1.217-0.141,1.788-1.078,1.392-2.239c-0.867-2.538-1.936-4.993-3.002-7.451c-1.76-4.058-3.793-7.978-5.887-11.869
			c-0.559-1.04-1.166-2.051-1.885-2.99c-0.244-0.318-0.508-0.618-0.847-0.842c-0.351-0.23-0.713-0.234-1.081-0.049
			c-0.253,0.128-0.459,0.318-0.654,0.52c-0.393,0.404-0.713,0.86-0.994,1.348c-1.324,2.306-2.596,4.641-3.801,7.011
			c-2.367,4.656-4.454,9.433-6.181,14.364c-0.113,0.322-0.19,0.649-0.204,0.994c-0.021,0.506,0.222,0.836,0.661,1.039
			c1.252,0.579,2.301,0.063,2.568-1.285c0.171-0.866,0.425-1.705,0.721-2.534c0.403-1.129,0.864-2.238,1.213-3.387
			c0.309-1.017,0.661-1.278,1.732-1.278C120.864,106.124,122.443,106.125,124.022,106.125z M22.049,112.262
			c-0.677,0.01-1.258-0.058-1.834,0.046c-0.704,0.128-1.092,0.504-1.161,1.107c-0.095,0.83,0.181,1.396,0.848,1.679
			c0.426,0.182,0.879,0.271,1.345,0.259c2.018-0.054,3.903-0.6,5.676-1.546c2.216-1.184,3.948-2.907,5.424-4.91
			c2.108-2.862,3.792-5.972,5.306-9.177c0.811-1.717,1.656-3.421,2.228-5.239c0.355-1.129,0.63-2.276,0.691-3.462
			c0.038-0.729-0.288-1.126-0.99-1.28c-0.75-0.165-1.308,0.088-1.573,0.735c-0.105,0.258-0.184,0.528-0.251,0.8
			c-0.294,1.183-0.599,2.363-0.953,3.53c-0.646,2.128-1.433,4.201-2.417,6.195c-0.897,1.818-2.295,3.065-4.313,3.497
			c-1.26,0.27-2.464-0.028-3.618-0.546c-1.691-0.758-2.983-1.985-4.042-3.479c-1.417-1.998-2.319-4.234-3.017-6.563
			c-0.287-0.958-0.549-1.923-0.833-2.881c-0.218-0.736-0.693-1.205-1.471-1.316c-0.317-0.046-0.64-0.038-0.957,0.012
			c-0.823,0.129-1.228,0.552-1.327,1.383c-0.021,0.178-0.029,0.359-0.021,0.539c0.039,0.885,0.171,1.747,0.563,2.558
			c0.295,0.612,0.549,1.244,0.84,1.858c1.439,3.041,3.224,5.845,5.646,8.21c1.201,1.173,2.536,2.139,4.156,2.655
			c0.865,0.275,1.752,0.392,2.66,0.383c0.539-0.005,0.759,0.205,0.832,0.729c0.063,0.457-0.124,0.819-0.425,1.137
			C27.13,111.21,24.867,112.489,22.049,112.262z"/>
		<path fill-rule="evenodd" clip-rule="evenodd" fill="none" d="M38.676,28.264c1.971,0.468,3.905,0.882,5.86,1.187
			c2.915,0.454,5.842,0.567,8.788,0.388c3.244-0.198,6.436-0.681,9.573-1.528c4.021-1.086,7.813-2.711,11.369-4.877
			c1.051-0.64,2.167-0.922,3.377-0.803c2.528,0.248,4.983-0.132,7.404-0.821c3.968-1.13,7.664-2.877,11.217-4.949
			c3.199-1.866,6.243-3.964,9.25-6.119c0.401-0.288,0.788-0.619,1.38-0.595c0.269,0.622,0.205,1.25-0.002,1.858
			c-0.527,1.551-0.999,3.121-1.578,4.655c-2.661,7.047-6.827,13.058-12.557,17.937c-6.061,5.162-13.015,8.503-20.887,9.879
			c-3.347,0.585-6.718,0.733-10.099,0.54c-7.499-0.428-14.427-2.646-20.751-6.727c-0.718-0.463-1.152-1.025-1.307-1.889
			c-0.4-2.242-0.876-4.47-1.309-6.706C38.31,29.208,38.217,28.702,38.676,28.264z"/>
		<path fill-rule="evenodd" clip-rule="evenodd" fill="none" d="M54.484,71.747c0.161-0.765,0.432-1.492,0.713-2.213
			c1.22-3.128,2.865-6.032,4.815-8.753c6.288-8.773,14.681-14.521,25.112-17.267c4.127-1.087,8.345-1.425,12.605-1.238
			c5.519,0.241,10.776,1.581,15.832,3.77c0.402,0.174,0.808,0.352,1.188,0.57c0.645,0.371,0.829,0.83,0.704,1.561
			c-0.078,0.457-0.249,0.884-0.396,1.319c-1.649,4.865-3.332,9.718-5.393,14.429c-0.946,2.166-2.045,4.249-3.368,6.211
			c-0.871,1.292-2.063,1.909-3.622,1.777c-0.519-0.044-1.025-0.163-1.524-0.312c-1.83-0.541-3.341-1.601-4.696-2.906
			c-1.469-1.416-2.803-2.961-4.192-4.452c-2.02-2.166-4.073-4.293-6.41-6.128c-1.011-0.794-2.067-1.502-3.247-2.022
			c-0.604-0.266-1.202-0.545-1.787-0.849c-0.918-0.478-1.862-0.548-2.849-0.273c-0.953,0.265-1.821,0.714-2.672,1.203
			c-2.148,1.234-4.018,2.824-5.774,4.556c-2.093,2.063-4.126,4.185-6.107,6.356c-0.998,1.095-2.05,2.133-3.23,3.035
			c-1.496,1.144-3.169,1.758-5.066,1.711c-0.14-0.004-0.28-0.006-0.419-0.019C54.642,71.809,54.586,71.779,54.484,71.747z"/>
		<path fill-rule="evenodd" clip-rule="evenodd" fill="none" d="M91.104,39.723c-0.033-0.447,0.216-0.666,0.5-0.871
			c2.389-1.729,4.584-3.678,6.609-5.817c4.638-4.9,7.971-10.581,10.116-16.967c0.637-1.896,1.147-3.828,1.575-5.782
			c0.115-0.527,0.252-1.05,0.487-1.541c0.225-0.469,0.546-0.861,1.055-1.005c2.021-0.573,4.05-0.763,6.056,0.046
			c1.669,0.673,2.666,1.988,3.293,3.618c0.441,1.147,0.653,2.347,0.735,3.57c0.137,2.044-0.01,4.077-0.274,6.102
			c-0.416,3.171-0.835,6.341-1.401,9.491c-0.735,4.095-1.641,8.15-2.803,12.147c-0.095,0.326-0.166,0.661-0.281,0.979
			c-0.235,0.646-0.45,0.728-1.081,0.45c-3.188-1.404-6.438-2.631-9.841-3.417c-3.92-0.905-7.896-1.208-11.91-1.078
			c-0.739,0.024-1.478,0.077-2.216,0.115C91.526,39.772,91.326,39.808,91.104,39.723z"/>
		<path fill-rule="evenodd" clip-rule="evenodd" fill="none" d="M72.141,21.536c-0.745,0.564-1.446,0.95-2.167,1.286
			c-4.078,1.901-8.298,3.351-12.777,3.954c-3,0.404-6.01,0.5-9.033,0.302c-1.876-0.123-3.75-0.279-5.594-0.641
			c-1.409-0.276-2.79-0.692-4.182-1.05c-0.533-0.138-0.783-0.521-0.855-1.04c-0.113-0.811-0.2-1.626-0.333-2.434
			c-0.346-2.098-0.482-4.209-0.369-6.332c0.074-1.398,0.221-2.789,0.704-4.121c0.613-1.693,1.643-3.013,3.351-3.706
			C42,7.301,43.168,7.208,44.361,7.308c2.404,0.202,4.574,1.076,6.636,2.272c1.923,1.116,3.684,2.471,5.508,3.733
			c3.177,2.197,6.44,4.247,9.946,5.89c1.558,0.73,3.168,1.332,4.766,1.964C71.492,21.275,71.767,21.386,72.141,21.536z"/>
		<path fill-rule="evenodd" clip-rule="evenodd" fill="none" d="M41.344,41.78c8.627,4.589,17.817,6.665,27.592,5.925
			c0.047,0.209-0.1,0.246-0.186,0.31c-6.878,5.1-11.972,11.64-15.618,19.348c-0.291,0.614-0.559,1.238-0.843,1.855
			c-0.072,0.157-0.104,0.346-0.283,0.442c-0.235-0.163-0.319-0.419-0.447-0.639c-2.516-4.336-4.511-8.909-6.202-13.62
			c-1.547-4.309-2.833-8.699-4.042-13.112C41.275,42.14,41.193,41.988,41.344,41.78z"/>
		<path fill-rule="evenodd" clip-rule="evenodd" fill="none" d="M73.297,102.314c0,0.279,0,0.56,0,0.839
			c0.003,3.14,0.007,6.28,0.009,9.42c0,0.279,0.007,0.563-0.034,0.838c-0.097,0.647-0.438,1.113-1.094,1.287
			c-0.491,0.13-0.995,0.134-1.485,0.016c-0.608-0.147-0.947-0.591-0.994-1.341c-0.053-0.857-0.072-1.719-0.075-2.578
			c-0.01-2.34-0.002-4.68-0.005-7.02c0-0.299-0.011-0.601-0.045-0.897c-0.058-0.495-0.354-0.798-0.833-0.899
			c-0.232-0.049-0.476-0.057-0.715-0.058c-4.52-0.003-9.04-0.003-13.559-0.002c-1.291,0-1.619,0.337-1.615,1.648
			c0.008,3,0.016,6,0.029,9c0.002,0.404-0.047,0.799-0.167,1.182c-0.226,0.72-0.741,1.101-1.516,1.136
			c-0.928,0.043-1.493-0.27-1.793-1c-0.162-0.394-0.223-0.807-0.223-1.231c0.002-1.2,0.001-2.399,0-3.6
			c-0.003-5.66-0.007-11.32-0.007-16.979c0-0.398-0.029-0.799,0.089-1.191c0.169-0.566,0.52-0.934,1.101-1.069
			c0.273-0.063,0.547-0.11,0.831-0.091c1.097,0.073,1.69,0.669,1.696,1.769c0.011,2.12-0.002,4.24-0.005,6.36
			c0,0.159-0.004,0.319-0.004,0.479c0.001,1.159,0.327,1.49,1.507,1.496c1.44,0.007,2.88-0.005,4.32,0.001
			c3.02,0.014,6.04,0.035,9.059,0.051c0.26,0.001,0.522,0.01,0.779-0.022c0.677-0.085,0.996-0.422,1.02-1.107
			c0.025-0.699,0.009-1.399,0.021-2.1c0.029-1.6,0.066-3.198,0.097-4.798c0.007-0.382,0.05-0.758,0.151-1.127
			c0.161-0.586,0.556-0.904,1.145-1.001c0.079-0.013,0.159-0.016,0.239-0.021c1.45-0.087,1.971,0.365,2.089,1.814
			c0.021,0.259,0.038,0.519,0.038,0.778c0.002,3.14,0.001,6.28,0,9.42c0,0.199,0,0.399,0,0.599
			C73.332,102.314,73.314,102.314,73.297,102.314z"/>
		<path fill-rule="evenodd" clip-rule="evenodd" fill="none" d="M88.069,102.409c0.352-0.057,0.597-0.27,0.858-0.44
			c1.044-0.681,1.944-1.534,2.836-2.396c2.835-2.738,5.568-5.571,8.069-8.623c0.356-0.434,0.734-0.846,1.257-1.093
			c0.647-0.307,1.215-0.22,1.636,0.261c0.433,0.494,0.477,1.059,0.062,1.65c-0.577,0.82-1.308,1.511-1.998,2.232
			c-1.591,1.661-3.247,3.256-4.901,4.854c-0.272,0.263-0.55,0.521-0.803,0.762c0.05,0.326,0.264,0.467,0.416,0.639
			c1.485,1.677,2.981,3.342,4.466,5.02c1.818,2.055,3.229,4.367,4.292,6.895c0.132,0.313,0.236,0.636,0.291,0.974
			c0.099,0.606-0.136,1.053-0.642,1.371c-1.117,0.703-2.404,0.332-2.961-0.882c-0.333-0.726-0.584-1.488-0.938-2.207
			c-1.104-2.245-2.583-4.228-4.268-6.061c-0.799-0.867-1.631-1.705-2.463-2.542c-0.642-0.646-1.013-0.678-1.726-0.146
			c-0.785,0.586-1.553,1.193-2.291,1.84c-0.922,0.806-1.4,1.806-1.48,3.035c-0.114,1.759-0.045,3.519-0.099,5.277
			c-0.009,0.28-0.006,0.561-0.099,0.83c-0.032,0.094-0.059,0.191-0.1,0.282c-0.302,0.665-0.959,0.934-2.009,0.824
			c-0.698-0.071-1.138-0.456-1.302-1.129c-0.058-0.236-0.064-0.475-0.064-0.715c-0.003-7.079-0.006-14.159-0.009-21.238
			c0-0.301,0.017-0.596,0.094-0.891c0.147-0.561,0.5-0.901,1.055-1.029c0.498-0.115,0.998-0.099,1.476,0.089
			c0.659,0.261,0.915,0.81,0.947,1.471c0.03,0.619,0.021,1.24,0.023,1.859c0.011,2.64,0.02,5.279,0.027,7.919
			C87.725,101.563,87.766,102.014,88.069,102.409z"/>
		<path fill-rule="evenodd" clip-rule="evenodd" fill="none" d="M124.022,106.125c-1.579,0-3.158-0.001-4.738,0
			c-1.071,0-1.424,0.262-1.732,1.278c-0.349,1.148-0.81,2.258-1.213,3.387c-0.296,0.829-0.55,1.668-0.721,2.534
			c-0.268,1.348-1.316,1.864-2.568,1.285c-0.439-0.203-0.682-0.533-0.661-1.039c0.014-0.345,0.091-0.672,0.204-0.994
			c1.727-4.932,3.813-9.708,6.181-14.364c1.205-2.37,2.477-4.705,3.801-7.011c0.281-0.487,0.602-0.943,0.994-1.348
			c0.195-0.201,0.401-0.392,0.654-0.52c0.368-0.186,0.73-0.182,1.081,0.049c0.339,0.224,0.603,0.523,0.847,0.842
			c0.719,0.939,1.326,1.95,1.885,2.99c2.094,3.892,4.127,7.812,5.887,11.869c1.066,2.458,2.135,4.913,3.002,7.451
			c0.396,1.161-0.175,2.099-1.392,2.239c-0.08,0.009-0.16,0.014-0.239,0.019c-1.087,0.067-1.698-0.294-2.109-1.301
			c-0.491-1.202-0.961-2.413-1.428-3.626c-0.301-0.783-0.582-1.574-0.869-2.363c-0.398-1.098-0.939-1.461-2.126-1.456
			c-1.579,0.008-3.158,0.002-4.738,0.002C124.022,106.074,124.022,106.1,124.022,106.125z M129.198,103.867
			c-0.026-0.48-0.173-0.912-0.455-1.285c-0.135-0.179-0.251-0.358-0.331-0.565c-1.082-2.806-2.502-5.446-3.957-8.07
			c-0.082-0.147-0.12-0.348-0.356-0.391c-0.054,0.075-0.119,0.15-0.167,0.235c-1.365,2.444-2.721,4.894-3.814,7.475
			c-0.288,0.681-0.563,1.368-0.798,2.068c-0.191,0.569-0.014,0.77,0.589,0.77c2.84,0.002,5.679,0.005,8.519,0.007
			C128.688,104.111,128.949,104.118,129.198,103.867z"/>
		<path fill-rule="evenodd" clip-rule="evenodd" fill="none" d="M22.049,112.262c2.818,0.228,5.081-1.052,7.014-3.088
			c0.301-0.317,0.489-0.68,0.425-1.137c-0.073-0.524-0.293-0.734-0.832-0.729c-0.908,0.009-1.794-0.107-2.66-0.383
			c-1.621-0.517-2.955-1.482-4.156-2.655c-2.422-2.365-4.207-5.169-5.646-8.21c-0.291-0.614-0.544-1.246-0.84-1.858
			c-0.392-0.811-0.524-1.673-0.563-2.558c-0.008-0.18-0.001-0.361,0.021-0.539c0.099-0.831,0.504-1.254,1.327-1.383
			c0.317-0.05,0.64-0.058,0.957-0.012c0.778,0.111,1.252,0.58,1.471,1.316c0.284,0.958,0.547,1.923,0.833,2.881
			c0.697,2.329,1.599,4.565,3.017,6.563c1.06,1.494,2.351,2.722,4.042,3.479c1.154,0.518,2.358,0.815,3.618,0.546
			c2.018-0.432,3.416-1.679,4.313-3.497c0.984-1.994,1.771-4.067,2.417-6.195c0.354-1.167,0.658-2.348,0.953-3.53
			c0.067-0.271,0.146-0.542,0.251-0.8c0.265-0.647,0.823-0.9,1.573-0.735c0.702,0.154,1.027,0.551,0.99,1.28
			c-0.061,1.186-0.336,2.333-0.691,3.462c-0.572,1.818-1.417,3.522-2.228,5.239c-1.514,3.205-3.198,6.314-5.306,9.177
			c-1.476,2.003-3.208,3.727-5.424,4.91c-1.772,0.946-3.658,1.492-5.676,1.546c-0.466,0.013-0.919-0.077-1.345-0.259
			c-0.667-0.283-0.943-0.849-0.848-1.679c0.069-0.604,0.457-0.979,1.161-1.107C20.791,112.204,21.373,112.271,22.049,112.262z"/>
		<path fill-rule="evenodd" clip-rule="evenodd" fill="#A9D171" d="M129.198,103.867c-0.249,0.251-0.511,0.244-0.771,0.243
			c-2.84-0.002-5.679-0.005-8.519-0.007c-0.603,0-0.78-0.2-0.589-0.77c0.234-0.7,0.51-1.388,0.798-2.068
			c1.094-2.581,2.449-5.03,3.814-7.475c0.048-0.085,0.113-0.16,0.167-0.235c0.236,0.043,0.274,0.243,0.356,0.391
			c1.455,2.624,2.875,5.265,3.957,8.07c0.08,0.207,0.196,0.387,0.331,0.565C129.025,102.955,129.172,103.387,129.198,103.867z"/>
	</g>
</g>
</svg>
