<svg width="50" height="50" viewBox="0 0 50 50" fill="none" xmlns="http://www.w3.org/2000/svg">
<rect width="50" height="50" fill="#E5E5E5"/>
<g id="facebook 1" clip-path="url(#clip0_0_1)">
<g id="Group">
<path id="Vector" fill-rule="evenodd" clip-rule="evenodd" d="M0.0979996 39.063C0.0979996 38.054 0.0979996 37.044 0.0979996 36.036C0.284 35.607 0.219 35.141 0.276 34.696C0.682 31.508 1.685 28.523 3.312 25.758C4.834 23.17 6.773 20.944 9.158 19.098C11.917 16.962 14.993 15.531 18.382 14.735C20.759 14.177 23.174 14.11 25.598 14.163C25.183 15.514 25.063 16.896 25.091 18.306C25.123 19.868 25.101 21.431 25.096 22.993C25.095 23.165 25.15 23.348 25.022 23.537C23.522 23.537 22.011 23.532 20.5 23.539C19.498 23.544 18.855 24.189 18.851 25.193C18.844 26.69 18.844 28.188 18.851 29.685C18.855 30.706 19.506 31.344 20.544 31.348C21.895 31.353 23.246 31.347 24.596 31.352C24.752 31.352 24.919 31.304 25.099 31.425C25.099 37.639 25.099 43.868 25.099 50.099C20.444 50.099 15.789 50.099 11.134 50.099C10.999 49.913 10.78 49.97 10.604 49.939C5.356 49.005 1.456 45.257 0.343 40.075C0.27 39.734 0.301 39.369 0.0979996 39.063Z" fill="#8678C5"/>
<path id="Vector_2" fill-rule="evenodd" clip-rule="evenodd" d="M25.597 14.162C23.172 14.109 20.758 14.176 18.381 14.734C14.993 15.529 11.917 16.961 9.157 19.097C6.772 20.943 4.834 23.169 3.311 25.757C1.685 28.523 0.681 31.507 0.275 34.695C0.218 35.14 0.283 35.606 0.0970001 36.035C0.0970001 27.8 0.0970001 19.564 0.0970001 11.328C0.16 11.016 0.223 10.703 0.287 10.391C1.325 5.4 4.286 2.146 9.126 0.573C9.785 0.359 10.482 0.331 11.133 0.0970001C20.378 0.0970001 29.622 0.0970001 38.867 0.0970001C39.029 0.278 39.281 0.121 39.457 0.252C39.549 0.38 39.693 0.417 39.83 0.466C43.704 1.884 45.559 5.766 44.154 9.633C43.539 11.327 42.392 12.6 40.74 13.381C40.734 12.113 40.731 10.846 40.721 9.579C40.712 8.555 40.068 7.913 39.037 7.91C37.477 7.905 35.917 7.889 34.357 7.915C31.803 7.957 29.62 8.899 27.803 10.697C26.807 11.687 26.128 12.877 25.597 14.162Z" fill="#9384D7"/>
<path id="Vector_3" fill-rule="evenodd" clip-rule="evenodd" d="M25.597 14.162C26.128 12.877 26.807 11.687 27.805 10.699C29.621 8.901 31.805 7.959 34.359 7.917C35.919 7.891 37.479 7.907 39.039 7.912C40.069 7.915 40.714 8.557 40.723 9.581C40.733 10.848 40.736 12.115 40.742 13.383C40.736 13.529 40.725 13.675 40.725 13.821C40.719 15.158 40.159 15.723 38.831 15.723C37.433 15.723 36.035 15.721 34.637 15.724C33.54 15.726 32.914 16.352 32.912 17.448C32.909 19.334 32.91 21.219 32.914 23.105C32.914 23.244 32.859 23.399 33.002 23.536C34.856 23.536 36.725 23.535 38.593 23.536C39.578 23.537 40.053 23.881 40.363 24.809C40.35 25.052 40.367 25.301 40.322 25.537C40.032 27.036 39.739 28.534 39.426 30.028C39.248 30.874 38.659 31.339 37.794 31.345C36.558 31.353 35.322 31.347 34.086 31.347C33.702 31.347 33.318 31.347 32.912 31.347C32.912 31.587 32.912 31.764 32.912 31.942C32.912 36.415 32.911 40.888 32.913 45.362C32.913 46.646 32.923 47.931 32.928 49.216C32.923 49.51 32.917 49.804 32.912 50.098C30.308 50.098 27.704 50.098 25.099 50.098C25.099 43.868 25.099 37.638 25.099 31.424C24.919 31.303 24.752 31.351 24.596 31.351C23.245 31.346 21.894 31.352 20.544 31.347C19.506 31.343 18.855 30.705 18.851 29.684C18.844 28.187 18.844 26.689 18.851 25.192C18.855 24.188 19.497 23.543 20.5 23.538C22.011 23.531 23.522 23.536 25.022 23.536C25.15 23.348 25.095 23.164 25.096 22.992C25.101 21.43 25.123 19.867 25.091 18.305C25.062 16.896 25.182 15.513 25.597 14.162Z" fill="white"/>
<path id="Vector_4" fill-rule="evenodd" clip-rule="evenodd" d="M32.926 49.216C32.921 47.932 32.911 46.647 32.911 45.362C32.909 40.888 32.91 36.415 32.91 31.942C32.91 31.764 32.91 31.588 32.91 31.347C33.316 31.347 33.7 31.347 34.084 31.347C35.32 31.347 36.556 31.353 37.792 31.345C38.657 31.338 39.246 30.873 39.424 30.028C39.737 28.534 40.03 27.036 40.32 25.537C40.365 25.301 40.348 25.052 40.361 24.809C40.438 24.785 40.515 24.759 40.593 24.737C45.107 23.483 48.105 20.632 49.561 16.181C49.797 15.461 49.921 14.704 50.097 13.965C50.097 22.331 50.097 30.696 50.097 39.063C49.909 39.271 49.965 39.546 49.915 39.787C48.875 44.765 45.929 48.031 41.103 49.6C40.41 49.826 39.677 49.936 38.963 50.099C38.15 50.099 37.335 50.099 36.522 50.099C35.304 49.889 34.087 49.665 32.926 49.216Z" fill="#7B70AE"/>
<path id="Vector_5" fill-rule="evenodd" clip-rule="evenodd" d="M50.098 13.965C49.922 14.705 49.798 15.461 49.562 16.181C48.106 20.632 45.108 23.483 40.594 24.737C40.516 24.758 40.439 24.785 40.362 24.809C40.052 23.88 39.578 23.537 38.592 23.536C36.724 23.535 34.855 23.536 33.001 23.536C32.858 23.399 32.913 23.244 32.913 23.105C32.909 21.219 32.908 19.334 32.911 17.448C32.913 16.352 33.539 15.727 34.636 15.724C36.034 15.721 37.432 15.724 38.83 15.723C40.157 15.723 40.718 15.158 40.724 13.821C40.724 13.675 40.735 13.529 40.741 13.383C42.393 12.602 43.54 11.329 44.155 9.635C45.559 5.767 43.705 1.886 39.831 0.467998C39.694 0.417998 39.55 0.381998 39.458 0.253998C44.427 0.864998 48.737 4.9 49.814 9.932C49.907 10.365 49.891 10.823 50.098 11.231C50.098 12.142 50.098 13.053 50.098 13.965Z" fill="#8678C5"/>
</g>
</g>
<defs>
<clipPath id="clip0_0_1">
<rect width="50" height="50" fill="white"/>
</clipPath>
</defs>
</svg>
