<svg width="51" height="43" viewBox="0 0 51 43" fill="none" xmlns="http://www.w3.org/2000/svg">
<rect width="51" height="43" fill="#E5E5E5"/>
<g id="footer-work 1">
<g id="footer-location 1">
<g id="Group">
<g id="Group_2">
<path id="Vector" fill-rule="evenodd" clip-rule="evenodd" d="M13.0457 37.8316C11.6505 38.4187 10.2542 39.005 8.86104 39.5969C6.32859 40.6721 3.79816 41.7549 1.26471 42.8282C0.626282 43.0987 0.427977 43.0438 0 42.5375C0 42.2863 0 42.036 0 41.7857C0.287341 40.8665 0.397624 39.9136 0.581766 38.9741C1.03504 36.6602 1.45593 34.3404 1.892 32.0226C1.90616 31.9476 1.95068 31.8783 1.98002 31.8051C2.05591 31.7762 2.13482 31.7522 2.20666 31.7166C5.5212 30.0523 8.83473 28.3833 12.1523 26.7229C12.729 26.4341 13.2774 26.0857 13.9118 25.9076C13.8794 26.359 13.8511 26.8105 13.8146 27.26C13.6568 29.1889 13.498 31.1169 13.3361 33.0449C13.2511 34.0555 13.1175 35.0643 13.0821 36.0759C13.0629 36.6611 12.8383 37.2444 13.0457 37.8316Z" fill="#9F92D8"/>
<path id="Vector_2" fill-rule="evenodd" clip-rule="evenodd" d="M50.5882 42.5385C50.4972 42.6241 50.4061 42.7098 50.3151 42.7955C46.8528 38.8269 43.3946 34.8564 39.9263 30.8936C38.9094 29.7318 37.9371 28.5334 36.8545 27.4246C36.8201 27.3562 36.7867 27.2879 36.7513 27.2205C36.6269 25.6092 36.5014 23.9979 36.377 22.3876C36.5571 22.5695 36.7432 22.7456 36.9142 22.9343C41.106 27.5574 45.2947 32.1815 49.4844 36.8055C49.8102 37.4947 49.8153 38.2513 49.9842 38.9742C50.2098 39.9386 50.2979 40.9281 50.5872 41.882C50.5882 42.0995 50.5882 42.319 50.5882 42.5385Z" fill="#FDBA24"/>
<path id="Vector_3" fill-rule="evenodd" clip-rule="evenodd" d="M49.4854 36.8046C45.2957 32.1805 41.107 27.5564 36.9152 22.9333C36.7443 22.7447 36.5571 22.5685 36.378 22.3866L36.377 22.3625C36.465 22.324 36.55 22.2692 36.6431 22.2489C38.2912 21.8986 39.9435 21.5636 41.5886 21.1998C42.8462 20.9206 44.1251 20.7233 45.3604 20.3566C45.6063 20.4798 45.8512 20.6059 46.099 20.7272C46.4147 20.8802 46.5806 21.1179 46.6434 21.4539C47.128 24.0123 47.6238 26.5679 48.1135 29.1263C48.5617 31.4701 49.0068 33.813 49.4561 36.1568C49.4976 36.3705 49.534 36.5851 49.4854 36.8046Z" fill="#8678C5"/>
<path id="Vector_4" fill-rule="evenodd" clip-rule="evenodd" d="M2.86127 27.4987C2.92096 26.4659 3.2164 25.4687 3.38334 24.4512C3.5432 23.4781 3.7668 22.5156 3.93779 21.5434C4.00558 21.1555 4.19174 20.8927 4.55496 20.7012C7.77642 19.0023 10.9928 17.2947 14.2102 15.59C14.4004 15.489 14.5957 15.4091 14.8203 15.4793C14.7839 15.9606 14.7596 16.4419 14.7111 16.9222C14.5431 18.5633 14.3833 20.2045 14.3276 21.8533C14.2922 21.8774 14.2568 21.9015 14.2214 21.9255C14.1293 21.9563 14.0312 21.9765 13.9462 22.0198C10.8097 23.5917 7.67727 25.1683 4.53675 26.7334C3.98838 27.0068 3.4663 27.3379 2.86127 27.4987Z" fill="#ABD171"/>
<g id="pin">
<path id="Vector_5" fill-rule="evenodd" clip-rule="evenodd" d="M16.7892 16.3407C16.4412 15.5524 16.0516 14.7775 15.7542 13.9728C14.8041 11.4028 14.5805 8.80012 15.7097 6.23204C17.199 2.84484 19.8761 0.811946 23.6804 0.141051C23.8574 0.110249 24.0365 0.092919 24.2146 0.0688553C24.4918 0.219013 24.8105 0.215167 25.109 0.287358C27.2883 0.813871 29.1115 1.86786 30.5745 3.509C31.9677 5.07122 32.7923 6.86348 32.9876 8.88483C33.2152 11.2421 32.6385 13.4752 31.5499 15.589C30.5988 17.4342 29.3715 19.1023 27.9844 20.6751C26.7672 22.0554 25.4418 23.3259 24.0021 24.4925C23.308 24.0478 22.7971 23.4097 22.1566 22.9082C20.6946 21.4884 19.3176 20.0003 18.1561 18.3418C17.6907 17.6796 17.2435 17.0078 16.7892 16.3407ZM29.1712 9.85796C29.1601 7.84047 27.4583 6.22916 25.3396 6.23012C23.222 6.23012 21.5212 7.84528 21.5132 9.86181C21.5051 11.8899 23.2392 13.532 25.369 13.5118C27.4927 13.4935 29.1803 11.8706 29.1712 9.85796Z" fill="#FE4A4A"/>
<path id="Vector_6" fill-rule="evenodd" clip-rule="evenodd" d="M24.0001 24.4936C25.4398 23.327 26.7642 22.0564 27.9824 20.6761C29.3695 19.1033 30.5968 17.4343 31.5478 15.59C32.6365 13.4763 33.2132 11.2432 32.9856 8.88591C32.7913 6.86456 31.9657 5.0723 30.5725 3.51009C29.1095 1.86894 27.2863 0.814954 25.1069 0.288441C24.8095 0.21625 24.4898 0.220096 24.2125 0.0699384C29.2774 -0.512402 33.7849 2.61395 35.2074 6.76253C35.8913 8.755 35.8671 10.7504 35.3399 12.7573C35.0222 13.9691 34.5224 15.1184 33.9053 16.2205C33.8112 16.3851 33.7191 16.5507 33.624 16.7143C32.677 18.3304 31.4881 19.7819 30.2497 21.1998C29.2714 22.2143 28.2606 23.2019 27.1821 24.1182C26.6044 24.6091 26.1056 25.2309 25.2941 25.4273C24.7822 25.2165 24.3542 24.9008 24.0001 24.4936Z" fill="#E63540"/>
</g>
<path id="Vector_7" fill-rule="evenodd" clip-rule="evenodd" d="M2.86127 27.4987C3.46732 27.3379 3.98838 27.0068 4.53574 26.7344C7.67626 25.1693 10.8087 23.5917 13.9452 22.0208C14.0301 21.9775 14.1283 21.9583 14.2204 21.9265C14.2183 22.1758 14.2325 22.4261 14.2123 22.6734C14.1242 23.7361 14.0261 24.7997 13.931 25.8624L13.9371 25.8912L13.9128 25.9095C13.2784 26.0876 12.73 26.436 12.1533 26.7248C8.83574 28.3852 5.52221 30.0533 2.20767 31.7185C2.13583 31.7541 2.05692 31.7782 1.98103 31.807C2.25219 30.3988 2.52334 28.9916 2.79348 27.5843C2.81776 27.5545 2.84205 27.5237 2.86633 27.4939L2.86127 27.4987Z" fill="#FCDA56"/>
<path id="Vector_8" fill-rule="evenodd" clip-rule="evenodd" d="M14.3266 21.8533C14.3822 20.2045 14.5431 18.5633 14.7101 16.9222C14.7586 16.4419 14.7839 15.9606 14.8193 15.4793C15.3687 15.5438 15.7734 15.9106 16.2611 16.105C16.4402 16.1762 16.6132 16.2619 16.7882 16.3418C17.2425 17.0088 17.6897 17.6807 18.1541 18.342C19.3156 19.9995 20.6926 21.4885 22.1546 22.9083C21.0994 22.7764 20.0431 22.6551 18.9898 22.5117C17.4347 22.3 15.8807 22.0738 14.3266 21.8533Z" fill="#99BB66"/>
<path id="Vector_9" fill-rule="evenodd" clip-rule="evenodd" d="M45.3594 20.3547C44.1241 20.7224 42.8462 20.9197 41.5876 21.1978C39.9424 21.5617 38.2902 21.8967 36.6421 22.247C36.549 22.2672 36.464 22.3221 36.376 22.3606C36.3476 21.193 36.124 20.0361 36.1605 18.8656C37.6407 18.5229 39.1199 18.1793 40.6001 17.8366C42.1865 18.6769 43.773 19.5163 45.3594 20.3547Z" fill="#FDBA24"/>
<path id="Vector_10" fill-rule="evenodd" clip-rule="evenodd" d="M30.2498 21.1988C31.4882 19.78 32.677 18.3294 33.624 16.7133C33.7201 16.5497 33.8122 16.3841 33.9053 16.2195C34.3616 16.181 34.6954 15.8759 35.0981 15.719C35.3187 15.6334 35.4998 15.4437 35.7699 15.4851C35.9895 16.5949 36.0704 17.7153 36.0644 18.8425C34.4182 19.5394 32.7731 20.2382 31.1249 20.9283C30.8447 21.0467 30.5857 21.2383 30.2498 21.1988Z" fill="#ABD171"/>
<path id="Vector_11" fill-rule="evenodd" clip-rule="evenodd" d="M36.0643 18.8425C36.0704 17.7154 35.9895 16.5949 35.7699 15.4851C35.9935 15.4052 36.1858 15.489 36.375 15.5891C37.7844 16.3379 39.1917 17.0878 40.6011 17.8376C39.1209 18.1803 37.6417 18.5229 36.1615 18.8656C36.1291 18.8589 36.0957 18.8512 36.0643 18.8425Z" fill="#99BB66"/>
<path id="Vector_12" fill-rule="evenodd" clip-rule="evenodd" d="M2.86633 27.4939C2.84205 27.5236 2.81777 27.5543 2.79349 27.584C2.7945 27.537 2.7945 27.4891 2.86633 27.4939Z" fill="#4CE066"/>
<path id="Vector_13" fill-rule="evenodd" clip-rule="evenodd" d="M36.7524 27.2195C36.7868 27.2869 36.8201 27.3553 36.8556 27.4236C36.8475 28.2341 36.9638 29.0359 37.0397 29.8415C37.1712 31.2651 37.2431 32.6955 37.3523 34.122C37.3968 34.7101 37.5405 35.2992 37.5142 35.8815C37.4869 36.5331 37.8076 37.1742 37.5496 37.823C35.2175 38.8115 32.8854 39.8 30.5523 40.7866C30.3884 40.8559 30.2204 40.9195 30.0545 40.9849C28.4711 39.4333 26.8856 37.8807 25.3022 36.3291C25.2962 36.2992 25.2941 36.2684 25.2951 36.2367C25.2982 33.1286 25.3022 30.0205 25.3053 26.9125C25.3032 26.8923 25.3022 26.874 25.3032 26.8538C25.4125 26.8239 25.5278 26.8056 25.63 26.7633C27.7092 25.9057 29.7904 25.0557 31.8605 24.1769C32.2065 24.0306 32.4352 24.0364 32.7397 24.2655C34.0641 25.2656 35.4128 26.2377 36.7524 27.2195Z" fill="#ABD171"/>
<path id="Vector_14" fill-rule="evenodd" clip-rule="evenodd" d="M13.0457 37.8316C12.8383 37.2445 13.0629 36.6612 13.0831 36.0788C13.1186 35.0662 13.2521 34.0575 13.3371 33.0478C13.5 31.1198 13.6578 29.1918 13.8157 27.2628C13.8521 26.8124 13.8804 26.3609 13.9128 25.9105L13.9371 25.8922L13.931 25.8633C14.0362 26.0029 14.1465 26.1367 14.2457 26.2801C16.683 29.8001 19.1153 33.323 21.5557 36.8421C22.793 38.6267 24.0436 40.4007 25.2871 42.1794C25.2881 42.4461 25.2891 42.7127 25.2901 42.9783C24.3694 42.731 23.5337 42.2892 22.6656 41.9224C19.4542 40.5672 16.251 39.1965 13.0457 37.8316Z" fill="#8678C5"/>
<path id="Vector_15" fill-rule="evenodd" clip-rule="evenodd" d="M37.5486 37.822C37.8066 37.1732 37.4849 36.5322 37.5132 35.8805C37.5385 35.2982 37.3958 34.7091 37.3513 34.121C37.2431 32.6945 37.1702 31.2642 37.0387 29.8405C36.9638 29.0349 36.8475 28.2331 36.8546 27.4226C37.9371 28.5315 38.9094 29.7299 39.9263 30.8917C43.3946 34.8545 46.8528 38.825 50.3151 42.7935C49.9346 43.0544 49.5724 42.9158 49.2011 42.757C45.5466 41.1957 41.8891 39.6364 38.2326 38.079C38.01 37.9847 37.7773 37.9077 37.5486 37.822Z" fill="#99BB66"/>
<path id="Vector_16" fill-rule="evenodd" clip-rule="evenodd" d="M25.2901 42.9774C25.2891 42.7117 25.2881 42.4451 25.287 42.1785C25.2921 40.2293 25.2962 38.2792 25.3012 36.3291C26.8846 37.8807 28.4701 39.4333 30.0535 40.9849C28.4832 41.6876 26.9281 42.421 25.2901 42.9774Z" fill="#FCDA56"/>
<path id="Vector_17" fill-rule="evenodd" clip-rule="evenodd" d="M36.7524 27.2195C35.4128 26.2377 34.0641 25.2665 32.7387 24.2674C32.4342 24.0383 32.2055 24.0325 31.8595 24.1789C29.7894 25.0567 27.7072 25.9076 25.629 26.7652C25.5258 26.8076 25.4115 26.8259 25.3022 26.8557C25.2992 26.3802 25.2962 25.9037 25.2941 25.4282C26.1056 25.2319 26.6044 24.6091 27.1821 24.1192C28.2606 23.2028 29.2714 22.2153 30.2498 21.2007C30.5857 21.2402 30.8447 21.0486 31.1249 20.9312C32.7731 20.2401 34.4182 19.5413 36.0644 18.8454C36.0957 18.8531 36.1281 18.8608 36.1615 18.8685C36.1251 20.0399 36.3487 21.1959 36.377 22.3635L36.378 22.3876C36.5025 23.9969 36.6279 25.6082 36.7524 27.2195Z" fill="#FCDA56"/>
<path id="Vector_18" fill-rule="evenodd" clip-rule="evenodd" d="M25.2941 25.4263C25.2961 25.9018 25.2992 26.3783 25.3022 26.8538C25.3012 26.874 25.3022 26.8923 25.3042 26.9125C23.0844 26.6555 20.8636 26.3994 18.5396 26.1309C18.6701 26.3436 18.7298 26.4505 18.7986 26.5525C19.8539 28.1368 20.9071 29.7241 21.9684 31.3055C23.0723 32.9515 24.1852 34.5926 25.2941 36.2357C25.2931 36.2665 25.2951 36.2973 25.3012 36.3281C25.2961 38.2782 25.2921 40.2284 25.287 42.1775C24.0436 40.3987 22.792 38.6248 21.5556 36.8402C19.1153 33.3221 16.683 29.7992 14.2456 26.2782C14.1475 26.1357 14.0362 26.001 13.931 25.8614C14.0261 24.7987 14.1232 23.7351 14.2123 22.6725C14.2325 22.4241 14.2183 22.1739 14.2203 21.9255C14.2558 21.9015 14.2912 21.8774 14.3266 21.8533C15.8817 22.0738 17.4347 22.3 18.9898 22.5117C20.0431 22.6551 21.0993 22.7764 22.1546 22.9083C22.7951 23.4098 23.306 24.0489 24.0001 24.4926C24.3542 24.9008 24.7822 25.2165 25.2941 25.4263Z" fill="#FDBA24"/>
<path id="Vector_19" fill-rule="evenodd" clip-rule="evenodd" d="M25.2941 36.2367C24.1852 34.5936 23.0723 32.9525 21.9685 31.3065C20.9071 29.725 19.8539 28.1388 18.7986 26.5535C18.7298 26.4514 18.6701 26.3436 18.5396 26.1319C20.8636 26.3994 23.0844 26.6564 25.3042 26.9134C25.3002 30.0205 25.2972 33.1286 25.2941 36.2367Z" fill="#99BB66"/>
</g>
</g>
</g>
</g>
</svg>
