<svg width="50" height="49" viewBox="0 0 50 49" fill="none" xmlns="http://www.w3.org/2000/svg">
<rect width="50" height="49" fill="#E5E5E5"/>
<g id="footer-work 1" clip-path="url(#clip0_0_1)">
<g id="footer-contact 1" clip-path="url(#clip1_0_1)">
<g id="Group">
<g id="Group_2">
<path id="Vector" fill-rule="evenodd" clip-rule="evenodd" d="M50.098 2.344C50.098 11.459 50.098 20.573 50.098 29.688C49.777 30.495 49.155 30.747 48.324 30.746C36.832 30.735 25.339 30.739 13.847 30.74C13.62 30.74 13.393 30.753 13.166 30.761C12.525 30.08 11.926 29.367 11.42 28.578C11.421 26.542 11.422 24.506 11.424 22.47C11.892 22.095 12.354 21.712 12.828 21.344C13.922 20.496 14.051 19.701 13.283 18.536C12.658 17.588 12.041 16.637 11.42 15.686C11.427 15.475 11.439 15.265 11.439 15.054C11.44 11.041 11.44 7.028 11.439 3.014C11.439 2.586 11.464 2.168 11.8 1.845C12.661 2.587 13.517 3.334 14.382 4.071C16.941 6.249 19.505 8.42 22.064 10.598C24.523 12.692 26.977 14.793 29.438 16.886C30.223 17.554 31.213 17.582 32.03 16.939C32.668 16.437 33.275 15.898 33.894 15.372C35.501 14.005 37.108 12.637 38.715 11.269C40.173 10.027 41.632 8.787 43.09 7.544C44.561 6.291 46.037 5.045 47.495 3.778C48.24 3.13 49.034 2.535 49.718 1.816C49.921 1.937 49.928 2.2 50.098 2.344Z" fill="#8678C5"/>
<path id="Vector_2" fill-rule="evenodd" clip-rule="evenodd" d="M13.165 30.76C16.092 34.054 19.176 37.164 23.148 39.228C24.052 39.698 24.857 39.543 25.486 38.749C26.202 37.844 26.903 36.926 27.616 36.018C28.4 35.017 29.239 34.874 30.285 35.571C32.856 37.282 35.427 38.996 37.995 40.712C39.057 41.421 39.241 42.272 38.581 43.382C38.049 44.277 37.472 45.146 36.986 46.064C36.054 47.83 34.527 48.55 32.63 48.74C29.673 49.036 26.92 48.312 24.262 47.115C20.668 45.495 17.539 43.177 14.607 40.578C10.882 37.277 7.45899 33.695 4.62199 29.591C2.64099 26.724 1.03499 23.675 0.348993 20.211C0.271993 19.822 0.309993 19.406 0.095993 19.046C0.095993 18.134 0.095993 17.223 0.095993 16.312C0.265993 16.079 0.240993 15.794 0.285993 15.532C0.514993 14.196 1.07099 13.059 2.25699 12.321C3.42699 11.593 4.60199 10.872 5.79799 10.187C6.61099 9.721 7.47699 9.944 8.03899 10.695C8.16499 10.863 8.27799 11.042 8.39599 11.217C9.40399 12.708 10.411 14.198 11.418 15.689C12.039 16.639 12.657 17.591 13.281 18.539C14.049 19.704 13.92 20.499 12.826 21.347C12.352 21.715 11.89 22.097 11.422 22.473C10.946 22.836 10.452 23.179 9.99799 23.567C9.41099 24.069 9.23099 24.819 9.56799 25.508C10.094 26.584 10.677 27.632 11.419 28.581C11.925 29.366 12.524 30.079 13.165 30.76Z" fill="#ABD171"/>
<path id="Vector_3" fill-rule="evenodd" clip-rule="evenodd" d="M11.8 1.844C12.085 1.439 12.5 1.365 12.958 1.365C17.45 1.368 21.941 1.367 26.433 1.367C33.805 1.367 41.177 1.368 48.549 1.366C49.001 1.366 49.427 1.41 49.718 1.817C49.034 2.536 48.24 3.131 47.495 3.779C46.037 5.046 44.56 6.292 43.09 7.545C41.632 8.787 40.173 10.028 38.715 11.27C37.108 12.638 35.501 14.006 33.894 15.373C33.275 15.899 32.667 16.438 32.03 16.94C31.214 17.583 30.223 17.556 29.438 16.887C26.977 14.794 24.523 12.693 22.064 10.599C19.505 8.421 16.941 6.249 14.382 4.072C13.517 3.333 12.661 2.586 11.8 1.844Z" fill="#9989E1"/>
</g>
</g>
</g>
</g>
<defs>
<clipPath id="clip0_0_1">
<rect width="50" height="49" fill="white"/>
</clipPath>
<clipPath id="clip1_0_1">
<rect width="50" height="50" fill="white"/>
</clipPath>
</defs>
</svg>
