<svg width="220" height="220" viewBox="0 0 220 220" fill="none" xmlns="http://www.w3.org/2000/svg">
<rect width="220" height="220" fill="#E5E5E5"/>
<g id="footer-work 1">
<g id="Group">
<g id="Group_2">
<path id="Vector" fill-rule="evenodd" clip-rule="evenodd" d="M69.608 220C66.7436 220 63.8792 220 61.0148 220C60.7684 219.507 60.2976 219.617 59.8928 219.604C48.7432 219.16 37.598 218.654 26.444 218.31C16.5132 218.007 7.9332 210.386 6.9168 200.614C5.3152 185.24 4.466 169.827 4.906 154.356C4.9192 153.789 5.0952 153.164 4.6552 152.711C2.0372 150.014 0.99 146.568 0 143.084C0 142.08 0 141.077 0 140.074C1.1968 136.431 1.386 132.594 2.1296 128.858C4.0612 119.143 6.3096 109.503 9.6536 100.17C11.8624 94.01 16.3284 89.993 22.8448 88.9328C29.1016 87.9208 35.4464 87.4324 41.7516 86.7152C46.4816 86.5744 51.194 86.1872 55.8932 85.646C63.1004 85.3116 70.2988 84.876 77.5104 84.6648C89.659 84.304 101.803 84.6824 113.929 85.4304C114.268 85.888 114.629 86.328 114.946 86.8032C127.754 105.816 145.596 114.602 168.476 113.146C170.76 121.713 172.471 130.398 173.765 139.172C174.438 143.744 173.338 147.858 170.487 151.43C169.62 152.522 169.268 153.547 169.29 154.902C169.55 169.431 168.947 183.924 167.548 198.392C166.373 210.514 158.818 217.787 146.7 218.266C136.193 218.68 125.695 219.138 115.192 219.586C114.734 219.608 114.167 219.397 113.868 219.996C111.148 219.996 108.425 219.996 105.706 219.996C101.407 219.195 97.112 219.402 92.814 219.996C89.091 219.996 85.364 219.996 81.642 219.996C77.6292 219.428 73.6208 219.204 69.608 220ZM103.224 172.216C103.224 168.639 103.272 165.057 103.215 161.48C103.127 156.363 99.774 153.019 94.684 152.97C89.672 152.918 84.6604 152.926 79.6488 152.962C74.404 153.001 70.9676 156.468 70.9412 161.766C70.906 168.784 70.9016 175.798 70.9456 182.816C70.9764 187.779 74.4436 191.444 79.3892 191.545C84.5372 191.651 89.703 191.633 94.851 191.453C99.999 191.277 103.167 187.871 103.215 182.741C103.255 179.234 103.224 175.727 103.224 172.216Z" fill="#8678C5"/>
<path id="Vector_2" fill-rule="evenodd" clip-rule="evenodd" d="M220 59.7256C219.089 61.6308 219.322 63.734 218.957 65.736C214.24 91.722 194.946 109.859 168.48 113.155C145.6 114.611 127.758 105.824 114.95 86.812C114.633 86.3412 114.272 85.8968 113.934 85.4392C110.704 79.3452 108.258 72.9696 106.96 66.176C106.52 61.4724 105.785 56.7776 106.476 52.03C108.579 25.7532 128.374 4.7696 155.065 0.5192C155.668 0.4224 156.385 0.6336 156.834 0C160.701 0 164.569 0 168.436 0C168.797 0.4664 169.334 0.3652 169.814 0.418C194.462 3.3616 214.562 22.4488 218.803 46.8556C219.226 49.28 219.085 51.8012 219.996 54.142C220 56.0032 220 57.8644 220 59.7256ZM159.733 106.63C161.911 107.052 164.085 107.07 166.258 106.621C172.973 106.44 179.256 104.65 185.2 101.578C187.119 100.58 189.319 100.003 190.582 98.014C190.942 98.186 191.277 98.094 191.585 97.878C196.742 94.208 201.282 89.936 204.569 84.4536C206.043 82.7816 207.042 80.8236 207.909 78.7908C210.998 72.8992 212.595 66.6028 212.973 59.9852C213.224 57.794 213.215 55.6028 212.973 53.416C212.599 46.794 210.989 40.4976 207.909 34.606C207.051 32.5512 205.986 30.6152 204.565 28.8904C201.014 23.2452 196.403 18.6648 190.78 15.092C189.099 13.6972 187.194 12.694 185.209 11.8096C179.252 8.778 172.977 6.9652 166.263 6.776C164.085 6.3492 161.907 6.3668 159.729 6.7584C153.036 6.9696 146.758 8.7384 140.818 11.7832C138.82 12.6412 136.915 13.6576 135.23 15.048C129.571 18.5944 125.017 23.2496 121.356 28.8112C120.05 30.6064 118.848 32.4676 118.07 34.5664C114.959 40.4668 113.247 46.7412 113.027 53.416C112.684 55.6072 112.684 57.7984 113.027 59.9852C113.252 66.6556 114.959 72.9256 118.065 78.826C118.866 80.9336 120.054 82.8212 121.383 84.6252C125.039 90.178 129.593 94.816 135.23 98.371C136.924 99.735 138.816 100.756 140.8 101.627C146.753 104.636 153.028 106.458 159.733 106.63Z" fill="#ABD171"/>
<path id="Vector_3" fill-rule="evenodd" clip-rule="evenodd" d="M92.809 220C97.108 219.406 101.402 219.199 105.701 220C101.407 220 97.108 220 92.809 220Z" fill="#B38D8D"/>
<path id="Vector_4" fill-rule="evenodd" clip-rule="evenodd" d="M69.608 220C73.6208 219.204 77.6292 219.428 81.6376 220C77.6292 220 73.6208 220 69.608 220Z" fill="#B38D8D"/>
<path id="Vector_5" fill-rule="evenodd" clip-rule="evenodd" d="M103.224 172.216C103.224 175.727 103.255 179.234 103.22 182.745C103.167 187.876 100.003 191.281 94.855 191.457C89.707 191.633 84.5416 191.655 79.3936 191.55C74.4436 191.448 70.9764 187.783 70.95 182.82C70.906 175.802 70.9104 168.788 70.9456 161.77C70.9676 156.473 74.404 153.006 79.6532 152.966C84.6648 152.931 89.676 152.922 94.688 152.975C99.779 153.023 103.132 156.367 103.22 161.484C103.272 165.057 103.224 168.639 103.224 172.216Z" fill="#F5E166"/>
<path id="Vector_6" fill-rule="evenodd" clip-rule="evenodd" d="M106.471 52.03C105.785 56.7776 106.52 61.4724 106.955 66.176C93.113 65.6568 79.266 65.7404 65.4236 66.2288C59.5892 66.4356 56.2584 69.5684 55.9768 75.3808C55.8096 78.7996 55.9108 82.2316 55.8932 85.6548C51.194 86.196 46.4816 86.5788 41.7516 86.724C41.7032 81.0744 41.3292 75.3984 42.5348 69.8236C44.6512 60.0512 53.0596 52.9276 63.0916 52.382C76.5424 51.6472 90.006 51.8408 103.466 52.0344C104.469 52.0432 105.468 52.03 106.471 52.03Z" fill="#F5E166"/>
<path id="Vector_7" fill-rule="evenodd" clip-rule="evenodd" d="M141.381 20.636C141.178 21.758 140.364 22.506 139.691 23.3244C124.124 42.3852 124.12 71.0424 139.674 90.068C140.439 91.001 141.332 91.85 141.781 93.016C139.524 92.356 137.971 93.174 136.946 95.229C136.418 96.294 135.802 97.319 135.225 98.362C129.589 94.807 125.035 90.169 121.378 84.6164C122.65 83.8288 123.944 83.0764 125.184 82.2448C126.856 81.1228 127.323 79.3584 126.434 77.792C125.558 76.252 123.732 75.7328 121.977 76.6128C120.639 77.286 119.363 78.078 118.056 78.8128C114.954 72.9124 113.243 66.6424 113.018 59.972C115.799 59.972 118.584 60.0116 121.361 59.9544C123.847 59.9016 125.224 58.6256 125.162 56.5884C125.101 54.6436 123.759 53.4732 121.361 53.4248C118.58 53.3676 115.799 53.4072 113.018 53.4028C113.243 46.728 114.95 40.4536 118.061 34.5532C119.363 35.2924 120.635 36.0976 121.972 36.762C123.746 37.6464 125.558 37.1228 126.434 35.5828C127.31 34.034 126.839 32.2432 125.176 31.1344C123.935 30.3072 122.632 29.5724 121.352 28.7936C125.013 23.232 129.567 18.5768 135.225 15.0304C135.661 15.8312 136.136 16.61 136.523 17.4284C137.509 19.5052 138.851 20.9572 141.381 20.636Z" fill="#9CC5F9"/>
<path id="Vector_8" fill-rule="evenodd" clip-rule="evenodd" d="M159.672 8.1356C154.383 9.9352 150.066 13.2836 145.856 16.7992C145.099 17.4284 144.514 18.2952 143.493 18.5636C143.862 15.8048 141.821 13.992 140.822 11.7788C146.762 8.734 153.041 6.9696 159.733 6.754C159.711 7.2116 159.689 7.6736 159.672 8.1356Z" fill="#9CC5F9"/>
<path id="Vector_9" fill-rule="evenodd" clip-rule="evenodd" d="M143.51 94.864C145.226 95.643 146.388 97.13 147.84 98.252C151.501 101.077 155.236 103.765 159.667 105.292C159.689 105.736 159.716 106.181 159.738 106.63C153.032 106.458 146.758 104.641 140.8 101.622C141.843 99.427 143.827 97.605 143.51 94.864Z" fill="#9CC5F9"/>
<path id="Vector_10" fill-rule="evenodd" clip-rule="evenodd" d="M212.973 59.9764C210.197 59.972 207.416 60.0028 204.64 59.9588C202.184 59.9192 200.697 58.6476 200.697 56.6984C200.697 54.7316 202.171 53.4688 204.64 53.4292C207.42 53.3852 210.197 53.416 212.973 53.4116C213.215 55.5984 213.224 57.7852 212.973 59.9764Z" fill="#F5E166"/>
<path id="Vector_11" fill-rule="evenodd" clip-rule="evenodd" d="M113.027 53.4072C115.812 53.4072 118.593 53.372 121.37 53.4292C123.768 53.4776 125.114 54.6436 125.171 56.5928C125.233 58.63 123.856 59.906 121.37 59.9588C118.589 60.0204 115.804 59.9764 113.027 59.9764C112.684 57.7896 112.684 55.5984 113.027 53.4072Z" fill="#F5E166"/>
<path id="Vector_12" fill-rule="evenodd" clip-rule="evenodd" d="M159.733 106.63C159.711 106.181 159.685 105.736 159.663 105.292C159.689 102.872 159.689 100.452 159.755 98.036C159.817 95.81 160.978 94.53 162.884 94.486C164.872 94.442 166.188 95.788 166.236 98.072C166.302 100.918 166.263 103.765 166.263 106.612C164.089 107.07 161.911 107.052 159.733 106.63Z" fill="#F5E166"/>
<path id="Vector_13" fill-rule="evenodd" clip-rule="evenodd" d="M159.672 8.1356C159.689 7.6736 159.711 7.2116 159.733 6.7496C161.911 6.3624 164.089 6.34481 166.267 6.77161C166.263 9.54801 166.289 12.32 166.245 15.0964C166.21 17.5428 164.938 18.9552 162.906 18.9288C160.965 18.898 159.799 17.534 159.751 15.1756C159.707 12.8304 159.698 10.4808 159.672 8.1356Z" fill="#F5E166"/>
<path id="Vector_14" fill-rule="evenodd" clip-rule="evenodd" d="M190.78 15.0832C190.018 16.3768 189.319 17.71 188.492 18.9596C187.374 20.6404 185.583 21.076 184.03 20.1564C182.481 19.2412 181.997 17.4636 182.921 15.6684C183.608 14.3396 184.444 13.0856 185.209 11.8008C187.194 12.6852 189.099 13.6884 190.78 15.0832Z" fill="#F5E166"/>
<path id="Vector_15" fill-rule="evenodd" clip-rule="evenodd" d="M207.909 34.5972C206.664 35.288 205.432 36.0096 204.16 36.6608C202.25 37.642 200.446 37.2152 199.496 35.618C198.528 33.99 199.043 32.2168 200.878 31.0552C202.079 30.294 203.333 29.6032 204.56 28.8816C205.986 30.6064 207.046 32.5424 207.909 34.5972Z" fill="#F5E166"/>
<path id="Vector_16" fill-rule="evenodd" clip-rule="evenodd" d="M204.569 84.4492C203.333 83.7452 202.061 83.0852 200.86 82.324C199.034 81.1668 198.537 79.3848 199.5 77.7524C200.433 76.1772 202.268 75.7548 204.16 76.736C205.423 77.3872 206.659 78.1044 207.909 78.7908C207.038 80.8148 206.043 82.7728 204.569 84.4492Z" fill="#F5E166"/>
<path id="Vector_17" fill-rule="evenodd" clip-rule="evenodd" d="M121.361 28.8024C122.641 29.5812 123.944 30.316 125.184 31.1432C126.848 32.252 127.318 34.0472 126.443 35.5916C125.572 37.1316 123.759 37.6508 121.981 36.7708C120.644 36.1064 119.372 35.3012 118.07 34.562C118.848 32.4588 120.054 30.5976 121.361 28.8024Z" fill="#F5E166"/>
<path id="Vector_18" fill-rule="evenodd" clip-rule="evenodd" d="M118.065 78.8216C119.372 78.0868 120.648 77.2948 121.986 76.6216C123.737 75.7416 125.563 76.2608 126.443 77.8008C127.332 79.3672 126.865 81.1316 125.193 82.2536C123.952 83.0852 122.659 83.8376 121.387 84.6252C120.054 82.8124 118.862 80.9292 118.065 78.8216Z" fill="#F5E166"/>
<path id="Vector_19" fill-rule="evenodd" clip-rule="evenodd" d="M185.2 101.574C184.404 100.236 183.52 98.943 182.833 97.552C181.966 95.792 182.547 93.988 184.175 93.183C185.904 92.325 187.374 92.796 188.43 94.349C189.226 95.52 189.869 96.787 190.582 98.014C189.319 99.999 187.119 100.575 185.2 101.574Z" fill="#F5E166"/>
<path id="Vector_20" fill-rule="evenodd" clip-rule="evenodd" d="M143.51 94.864C143.827 97.605 141.843 99.427 140.8 101.622C138.82 100.751 136.924 99.73 135.23 98.366C135.806 97.324 136.422 96.298 136.95 95.234C137.971 93.179 139.528 92.36 141.786 93.02C142.208 93.381 142.622 93.742 143.044 94.103C143.194 94.323 143.343 94.543 143.497 94.763L143.51 94.864Z" fill="#F5E166"/>
<path id="Vector_21" fill-rule="evenodd" clip-rule="evenodd" d="M140.822 11.7744C141.825 13.992 143.862 15.8048 143.493 18.5592L143.484 18.656C143.33 18.876 143.176 19.1004 143.026 19.3204C142.758 19.5932 142.49 19.8616 142.221 20.1344C141.94 20.3016 141.654 20.4688 141.372 20.636H141.385C138.855 20.9572 137.509 19.5052 136.532 17.4372C136.145 16.6144 135.67 15.8356 135.234 15.0392C136.919 13.6488 138.82 12.6324 140.822 11.7744Z" fill="#F5E166"/>
<g id="golema-skazalka">
<path id="Skazalka-min" fill-rule="evenodd" clip-rule="evenodd" d="M160.026 55.2653C160.044 53.8175 160.066 52.3698 160.089 50.9221C162.204 49.7104 164.319 49.6568 166.433 50.9959C166.422 59.696 166.441 68.3824 166.392 77.0825C166.352 84.7485 165.114 89.173 163.14 89.089C161.256 88.9913 160.127 84.7162 160.086 77.3259C160.049 69.9769 160.046 62.6142 160.026 55.2653Z" fill="#F5E166"/>
<path id="Skazalka-min_2" fill-rule="evenodd" clip-rule="evenodd" d="M162.022 57.5497C162.03 56.2987 162.041 55.0477 162.051 53.7968C162.958 52.749 163.865 52.7021 164.771 53.8584C164.764 61.3761 164.769 68.8819 164.745 76.3996C164.726 83.0238 164.193 86.8478 163.347 86.7757C162.539 86.6917 162.056 82.998 162.041 76.612C162.027 70.2619 162.028 63.8998 162.022 57.5497Z" fill="#ABD171"/>
</g>
<g id="mala-skazalka">
<path id="Skazalka-cas" fill-rule="evenodd" clip-rule="evenodd" d="M160.987 51.1159C161.895 50.5499 162.806 49.9879 163.717 49.4258C165.735 50.8919 167.035 52.8234 167.47 55.3146C162.07 58.8069 156.695 62.3213 151.271 65.778C146.494 68.8272 143.009 69.4651 141.88 67.6084C140.812 65.8291 142.787 63.0655 147.344 60.0522C151.879 57.0595 156.442 54.0928 160.987 51.1159Z" fill="#F5E166"/>
<path id="Skazalka-cas_2" fill-rule="evenodd" clip-rule="evenodd" d="M161.054 53.8202C161.831 53.3262 162.609 52.8339 163.387 52.3415C164.555 52.7262 165.106 53.5114 164.913 54.7779C160.268 57.784 155.637 60.7966 150.983 63.7881C146.882 66.4253 144.216 67.4858 143.774 66.7066C143.361 65.9568 145.364 64.0486 149.297 61.4759C153.21 58.9191 157.137 56.3705 161.054 53.8202Z" fill="#ABD171"/>
</g>
<path id="Vector_22" fill-rule="evenodd" clip-rule="evenodd" d="M141.372 20.6404C141.654 20.4732 141.94 20.306 142.221 20.1388C142.019 20.4468 141.75 20.6448 141.372 20.6404Z" fill="#F5E166"/>
</g>
</g>
</g>
</svg>
