<svg width="50" height="50" viewBox="0 0 50 50" fill="none" xmlns="http://www.w3.org/2000/svg">
<rect width="50" height="50" fill="#E5E5E5"/>
<g id="instagram 1" clip-path="url(#clip0_0_1)">
<g id="Group">
<g id="Group_2">
<path id="Vector" fill-rule="evenodd" clip-rule="evenodd" d="M0.0979996 35.742C0.0979996 28.581 0.0979996 21.419 0.0979996 14.258C0.18 14.11 0.186 13.947 0.19 13.784C0.202 13.163 0.307 12.551 0.439 11.95C1.018 9.30701 2.194 6.96201 4.04 4.97001C6.436 2.38401 9.372 0.818007 12.865 0.287007C13.362 0.211007 13.875 0.275007 14.356 0.0980072C21.518 0.0980072 28.679 0.0980072 35.84 0.0980072C36 0.202007 36.184 0.183007 36.361 0.192007C37.537 0.255007 38.679 0.496007 39.795 0.863007C42.37 1.71101 44.564 3.14801 46.353 5.18801C48.279 7.38301 49.465 9.92301 49.907 12.815C49.98 13.295 49.933 13.791 50.098 14.258C50.098 21.42 50.098 28.581 50.098 35.742C50.01 35.939 50.002 36.149 50 36.359C49.992 36.996 49.882 37.624 49.746 38.238C49.046 41.391 47.524 44.08 45.098 46.228C42.492 48.537 39.458 49.826 35.962 49.976C35.753 49.985 35.535 49.959 35.352 50.097C28.516 50.097 21.68 50.097 14.844 50.097C14.628 49.943 14.376 49.979 14.136 49.974C12.826 49.948 11.559 49.68 10.324 49.267C7.823 48.429 5.681 47.033 3.924 45.06C1.948 42.842 0.737 40.269 0.292 37.328C0.211 36.8 0.273 36.256 0.0979996 35.742ZM45.107 24.689C45.104 24.689 45.101 24.689 45.098 24.689C45.098 21.629 45.101 18.57 45.096 15.511C45.095 14.812 45.063 14.114 44.947 13.421C44.458 10.514 42.957 8.26801 40.505 6.65801C38.778 5.52501 36.849 5.09001 34.804 5.09001C28.344 5.09101 21.883 5.08901 15.423 5.09301C14.756 5.09301 14.091 5.13201 13.431 5.24301C10.488 5.73901 8.224 7.26401 6.615 9.76401C5.516 11.472 5.097 13.371 5.097 15.381C5.096 21.451 5.092 27.521 5.09 33.591C5.09 34.372 5.088 35.152 5.143 35.933C5.272 37.764 5.851 39.436 6.924 40.917C8.945 43.711 11.726 45.103 15.149 45.121C21.788 45.155 28.428 45.135 35.068 45.126C35.881 45.125 36.695 45.052 37.482 44.839C41.269 43.818 43.715 41.428 44.778 37.643C45.081 36.568 45.109 35.462 45.109 34.355C45.106 31.134 45.107 27.912 45.107 24.689Z" fill="url(#paint0_linear_0_1)"/>
<path id="Vector_2" fill-rule="evenodd" clip-rule="evenodd" d="M37.992 25.111C38.005 32.226 32.154 38.01 25.054 37.986C17.952 37.962 12.188 32.148 12.197 25.075C12.206 17.949 18.057 12.173 25.14 12.198C32.238 12.223 38.033 18.04 37.992 25.111ZM25.079 33.021C29.445 33.03 33.008 29.484 33.017 25.119C33.028 20.757 29.477 17.189 25.116 17.179C20.754 17.169 17.187 20.721 17.178 25.083C17.168 29.448 20.716 33.013 25.079 33.021Z" fill="url(#paint1_linear_0_1)"/>
<path id="Vector_3" fill-rule="evenodd" clip-rule="evenodd" d="M41.114 12.259C41.117 13.963 39.761 15.324 38.059 15.328C36.37 15.331 34.978 13.951 34.977 12.27C34.977 10.589 36.363 9.20001 38.048 9.19401C39.738 9.18701 41.112 10.56 41.114 12.259Z" fill="url(#paint2_linear_0_1)"/>
</g>
</g>
</g>
<defs>
<linearGradient id="paint0_linear_0_1" x1="25.098" y1="0.0980072" x2="25.098" y2="50.097" gradientUnits="userSpaceOnUse">
<stop stop-color="#8678C5"/>
<stop offset="1" stop-color="#ABD171"/>
</linearGradient>
<linearGradient id="paint1_linear_0_1" x1="25.0946" y1="12.1979" x2="25.0946" y2="37.9861" gradientUnits="userSpaceOnUse">
<stop stop-color="#8678C5"/>
<stop offset="1" stop-color="#ABD171"/>
</linearGradient>
<linearGradient id="paint2_linear_0_1" x1="38.0455" y1="9.19398" x2="38.0455" y2="15.328" gradientUnits="userSpaceOnUse">
<stop stop-color="#8678C5"/>
<stop offset="1" stop-color="#ABD171"/>
</linearGradient>
<clipPath id="clip0_0_1">
<rect width="50" height="50" fill="white"/>
</clipPath>
</defs>
</svg>
